<svg xmlns="http://www.w3.org/2000/svg" viewBox="0 0 20 18.54"><defs><style>.cls-1{fill:#001cb9;}</style></defs><title>btn_download</title><g id="图层_2" data-name="图层 2"><g id="图层_1-2" data-name="图层 1"><g id="图层_2-2" data-name="图层 2"><g id="图层_1-2-2" data-name="图层 1-2"><path class="cls-1" d="M3.56,18.54H16.41A3.59,3.59,0,0,0,20,15h0V9.62a.38.38,0,0,0-.38-.38.37.37,0,0,0-.38.36s0,0,0,0V15a2.84,2.84,0,0,1-2.83,2.83H3.56A2.84,2.84,0,0,1,.75,15V9.54a.37.37,0,0,0-.36-.38h0A.37.37,0,0,0,0,9.52s0,0,0,0V15A3.59,3.59,0,0,0,3.56,18.54Z"/><path class="cls-1" d="M6,10.2l3.73,3.72a.38.38,0,0,0,.52,0L14,10.2a.37.37,0,0,0,0-.52h0a.38.38,0,0,0-.52,0l-3.09,3.09V.39a.39.39,0,0,0-.78,0v12.4L6.52,9.7a.38.38,0,1,0-.61.44l.09.09Z"/></g></g></g></g></svg>