<svg xmlns="http://www.w3.org/2000/svg" viewBox="0 0 16.43 20"><defs><style>.cls-1{fill:#001cb9;}</style></defs><title>btn_delete</title><g id="图层_2" data-name="图层 2"><g id="图层_1-2" data-name="图层 1"><path class="cls-1" d="M3.64,20A1.63,1.63,0,0,1,2,18.49L1.27,5.67h.68l.77,12.79a1,1,0,0,0,.93.87h9.51a.91.91,0,0,0,.89-.85l.51-12.8h.68L14.72,18.5A1.58,1.58,0,0,1,13.15,20Z"/><rect class="cls-1" x="7.9" y="5.67" width="0.68" height="11.64"/><polygon class="cls-1" points="10.79 17.31 11.11 5.67 11.78 5.67 11.46 17.31 10.79 17.31"/><polygon class="cls-1" points="5.1 17.31 4.77 5.67 5.45 5.67 5.78 17.31 5.1 17.31"/><path class="cls-1" d="M.34,3.69A.34.34,0,1,1,.34,3H4.68V1.49A1.5,1.5,0,0,1,6.18,0h4.08a1.5,1.5,0,0,1,1.49,1.49V3h4.34a.34.34,0,1,1,0,.68Zm5.84-3a.83.83,0,0,0-.82.82V3h5.71V1.49a.83.83,0,0,0-.82-.82Z"/></g></g></svg>