<svg xmlns="http://www.w3.org/2000/svg" viewBox="0 0 20 19.87"><defs><style>.cls-1{fill:#001cb9;}</style></defs><title>btn_edit</title><g id="图层_2" data-name="图层 2"><g id="图层_1-2" data-name="图层 1"><path class="cls-1" d="M.34,19.87A.34.34,0,0,1,0,19.41l2.56-6.83a.34.34,0,0,1,.08-.12L11.61,3.5,12.1,4,3.68,12.41l1.76,1.78,8.42-8.42.49.49L5.93,14.68l1.64,1.65L15.94,8l.49.49L7.36,17.51a.34.34,0,0,1-.13.08L.45,19.85Zm1.28-2.78,1.25,1.23,4.28-1.43-4-4Z"/><path class="cls-1" d="M13.06,2l.48-.48.21-.21,1-1a1.17,1.17,0,0,1,1.64,0l3.25,3.25a1.17,1.17,0,0,1,0,1.64L18,6.94ZM15.59.69a.47.47,0,0,0-.33.14L14,2,18,6l1.22-1.22a.48.48,0,0,0,0-.67L15.92.83A.47.47,0,0,0,15.59.69Z"/></g></g></svg>