<svg xmlns="http://www.w3.org/2000/svg" viewBox="0 0 16.15 20"><defs><style>.cls-1{fill:#001cb9;}</style></defs><title>btn_readreport</title><g id="图层_2" data-name="图层 2"><g id="图层_1-2" data-name="图层 1"><g id="图层_2-2" data-name="图层 2"><g id="图层_1-2-2" data-name="图层 1-2"><path class="cls-1" d="M1.49,20A1.49,1.49,0,0,1,0,18.51H0V4.23A.42.42,0,0,1,.15,4L4.77.12A.42.42,0,0,1,4.9,0h9.76a1.49,1.49,0,0,1,1.49,1.49h0v17A1.49,1.49,0,0,1,14.66,20H1.49ZM.68,4.62V18.46a.82.82,0,0,0,.82.82H14.66a.82.82,0,0,0,.82-.82v-17a.82.82,0,0,0-.82-.82H5.81V5.91H3.26V5.24H5.13V.89Z"/><path class="cls-1" d="M4,13a.34.34,0,1,1,0-.68h8.15a.34.34,0,1,1,0,.68H4Z"/><path class="cls-1" d="M4,15.84a.34.34,0,1,1,0-.68h8.15a.34.34,0,1,1,0,.68H4Z"/><path class="cls-1" d="M4,10.15a.34.34,0,0,1,0-.68h8.15a.34.34,0,1,1,0,.68H4Z"/></g></g></g></g></svg>