<svg xmlns="http://www.w3.org/2000/svg" viewBox="0 0 79.86 40.82"><defs><style>.cls-1{fill:#001cb9;}</style></defs><title>icon_email</title><g id="图层_2" data-name="图层 2"><g id="图层_1-2" data-name="图层 1"><path class="cls-1" d="M22.06,40.82a1,1,0,0,1,0-1.9H70.45a3.21,3.21,0,0,0,3-2.62l4.63-33.6-27.74,20a1.09,1.09,0,0,1-.25.13,1.14,1.14,0,0,1-.31.06h0a1,1,0,0,1-.29-.06,1.06,1.06,0,0,1-.33-.18L26.29,2.61a1,1,0,0,1-.09-1.34l.1-.12a3.15,3.15,0,0,1,.5-.5A3.62,3.62,0,0,1,29.38,0H76.3A3.54,3.54,0,0,1,79,1.18,3.54,3.54,0,0,1,79.82,4L75.34,36.55a5.15,5.15,0,0,1-4.89,4.26ZM49.84,20.73,75.94,1.9H28.37Z"/><path class="cls-1" d="M13.28,30.87a1,1,0,0,1,0-1.9h24a1,1,0,0,1,0,1.9Z"/><path class="cls-1" d="M1,22.33a1,1,0,0,1,0-1.9H32a1,1,0,0,1,0,1.9Z"/><path class="cls-1" d="M10.19,13.79a1,1,0,1,1,0-1.9H24.26a1,1,0,0,1,0,1.9Z"/></g></g></svg>