<svg xmlns="http://www.w3.org/2000/svg" viewBox="0 0 25.87 25.42"><defs><style>.cls-1{fill:none;stroke:#001cb9;stroke-linecap:round;stroke-linejoin:round;stroke-width:0.87px;}</style></defs><title>icon_product_solution</title><g id="图层_2" data-name="图层 2"><g id="图层_1-2" data-name="图层 1"><circle class="cls-1" cx="12.77" cy="12.59" r="5.86"/><path class="cls-1" d="M4.44,10a8.74,8.74,0,0,1,5.68-5.75l.15,0"/><path class="cls-1" d="M10.31,21a8.74,8.74,0,0,1-5.9-5.91"/><path class="cls-1" d="M21.14,15.06a8.74,8.74,0,0,1-5.77,5.86"/><path class="cls-1" d="M15.31,4.25A8.74,8.74,0,0,1,21.11,10"/><circle class="cls-1" cx="12.78" cy="12.59" r="2.96"/><line class="cls-1" x1="12.73" y1="6.69" x2="12.73" y2="0.44"/><line class="cls-1" x1="6.97" y1="12.53" x2="0.44" y2="12.53"/><line class="cls-1" x1="18.74" y1="12.69" x2="25.44" y2="12.69"/><line class="cls-1" x1="12.81" y1="18.53" x2="12.81" y2="24.99"/></g></g></svg>