<svg xmlns="http://www.w3.org/2000/svg" viewBox="0 0 26.61 26.62"><defs><style>.cls-1{fill:none;stroke:#fff;stroke-linecap:round;stroke-linejoin:round;stroke-width:1.14px;}.cls-2{fill:#fff;}</style></defs><title>icon_account_basicinfo_white</title><g id="图层_2" data-name="图层 2"><g id="图层_1-2" data-name="图层 1"><circle class="cls-1" cx="13.31" cy="13.31" r="12.74"/><path class="cls-2" d="M4.19,14.7a.51.51,0,0,1-.5-.45,9.74,9.74,0,0,1-.06-1A9.62,9.62,0,0,1,7.19,5.73a.5.5,0,0,1,.32-.11.51.51,0,0,1,.32.9,8.61,8.61,0,0,0-3.19,6.7,8.7,8.7,0,0,0,.05.92.51.51,0,0,1-.45.56Z"/><path class="cls-2" d="M8.86,21.73a9.71,9.71,0,0,1-1-.62V18.81a3.31,3.31,0,0,1,3.31-3.31h6a3.31,3.31,0,0,1,3.31,3.31v.79a9.7,9.7,0,0,1-1,1V18.81a2.3,2.3,0,0,0-2.29-2.29h-6a2.3,2.3,0,0,0-2.29,2.29Z"/><path class="cls-2" d="M14.15,13.08a4,4,0,1,1,4-4A4,4,0,0,1,14.15,13.08Zm0-6.93a3,3,0,1,0,3,3A3,3,0,0,0,14.15,6.15Z"/></g></g></svg>