<svg xmlns="http://www.w3.org/2000/svg" viewBox="0 0 22.89 21.66"><defs><style>.cls-1{fill:#fff;}</style></defs><title>icon_help_service_white</title><g id="图层_2" data-name="图层 2"><g id="图层_1-2" data-name="图层 1"><path class="cls-1" d="M19.62,8.19a8.17,8.17,0,1,0-16.35,0v0A3.47,3.47,0,0,0,0,11.65v.41a3.47,3.47,0,0,0,3.47,3.47h.18l1.45,2.31a5.46,5.46,0,0,0,4.68,2.6h.29a1.63,1.63,0,1,0,0-.82H9.79a4.66,4.66,0,0,1-4-2.23L4.62,15.53H4.9a.82.82,0,0,0,.82-.82V9a.82.82,0,0,0-.82-.82H4.09a7.36,7.36,0,0,1,14.71,0H18a.82.82,0,0,0-.82.82v5.72a.82.82,0,0,0,.82.82h1.43a3.47,3.47,0,0,0,3.47-3.47v-.41a3.47,3.47,0,0,0-3.27-3.45Zm-8,11a.82.82,0,1,1-.82.82.82.82,0,0,1,.82-.82ZM4.9,9v5.72H3.47A2.65,2.65,0,0,1,.82,12.06v-.41A2.65,2.65,0,0,1,3.47,9Zm17.16,3.07a2.65,2.65,0,0,1-2.66,2.66H18V9h1.43a2.65,2.65,0,0,1,2.66,2.66Zm0,0"/><path class="cls-1" d="M14.83,3.09,14.67,3l-.16-.1A.38.38,0,0,0,14,3a.4.4,0,0,0,.14.55l.16.1a.84.84,0,0,0,.18.1.39.39,0,0,0,.2.06.38.38,0,0,0,.35-.2.41.41,0,0,0-.16-.55Zm0,0"/><path class="cls-1" d="M11.44,2a5.92,5.92,0,0,0-4.5,2.06.41.41,0,0,0,0,.57.43.43,0,0,0,.27.1.37.37,0,0,0,.31-.14,5.15,5.15,0,0,1,3.88-1.78,5.08,5.08,0,0,1,1.1.12A.43.43,0,0,0,13,2.68a.43.43,0,0,0-.31-.49A5.53,5.53,0,0,0,11.44,2Zm0,0"/></g></g></svg>