<svg xmlns="http://www.w3.org/2000/svg" viewBox="0 0 45.87 47.34"><defs><style>.cls-1,.cls-2{fill:none;stroke:#001cb9;stroke-linecap:round;stroke-linejoin:round;}.cls-1{stroke-width:2.27px;}.cls-2{stroke-width:2.42px;}.cls-3{fill:#001cb9;}</style></defs><title>icon_team</title><g id="图层_2" data-name="图层 2"><g id="图层_1-2" data-name="图层 1"><path class="cls-1" d="M31,36.24a15.47,15.47,0,0,1-16.28-.08"/><path class="cls-1" d="M29.4,9a15.47,15.47,0,0,1,8.4,18.38"/><path class="cls-1" d="M8.11,27.3A15.47,15.47,0,0,1,16.54,9"/><path class="cls-2" d="M1.68,27.43a21.73,21.73,0,1,1,43-4.5,21.87,21.87,0,0,1-.44,4.38"/><path class="cls-3" d="M29.77,23.3l-.23-.17,0-2.3a2.67,2.67,0,0,0-2.66-2.67H19.1a2.67,2.67,0,0,0-2.67,2.67V23l-.17.23-1.4,0-.23-.17,0-2.3a4.52,4.52,0,0,1,4.51-4.52h7.73a4.52,4.52,0,0,1,4.51,4.52V23l-.17.23-.1,0Z"/><path class="cls-3" d="M16.78,47.34l-.23-.17,0-2.57a2.67,2.67,0,0,0-2.67-2.67H6.11a2.67,2.67,0,0,0-2.67,2.67v2.47l-.17.23-1.4,0-.23-.17,0-2.57a4.52,4.52,0,0,1,4.51-4.52h7.73a4.52,4.52,0,0,1,4.51,4.51v2.47l-.17.23-.1,0Z"/><path class="cls-3" d="M27.74,34.11a.9.9,0,0,1-.48-.14l-4-2.8A.46.46,0,0,0,23,31.1a.49.49,0,0,0-.25.07l-4,2.8a.87.87,0,0,1-.47.13.93.93,0,0,1-.78-.42.92.92,0,0,1-.12-.69.9.9,0,0,1,.4-.57l4.12-2.85A.46.46,0,0,0,22,29.2V24.36a.91.91,0,0,1,1.82,0v4.81a.45.45,0,0,0,.21.38l4.16,2.87a.89.89,0,0,1,.4.58.91.91,0,0,1-.89,1.11Z"/><path class="cls-3" d="M42.77,47.34l-.23-.17,0-2.57a2.67,2.67,0,0,0-2.67-2.67H32.1a2.67,2.67,0,0,0-2.67,2.67v2.47l-.17.23-1.4,0-.23-.17,0-2.57a4.52,4.52,0,0,1,4.51-4.52h7.73a4.52,4.52,0,0,1,4.51,4.51v2.47l-.17.23-.1,0Z"/><path class="cls-3" d="M22.86,13.74a4.67,4.67,0,1,1,4.67-4.67A4.68,4.68,0,0,1,22.86,13.74Zm0-7.5a2.83,2.83,0,1,0,2.82,2.82A2.83,2.83,0,0,0,22.86,6.24Z"/><path class="cls-3" d="M35.86,37.5a4.67,4.67,0,1,1,4.67-4.67A4.68,4.68,0,0,1,35.86,37.5Zm0-7.5a2.83,2.83,0,1,0,2.82,2.83A2.83,2.83,0,0,0,35.86,30Z"/><path class="cls-3" d="M9.86,37.5a4.67,4.67,0,1,1,4.67-4.67A4.68,4.68,0,0,1,9.86,37.5Zm0-7.5a2.83,2.83,0,1,0,2.82,2.83A2.83,2.83,0,0,0,9.86,30Z"/></g></g></svg>