<svg xmlns="http://www.w3.org/2000/svg" viewBox="0 0 45.09 45.1"><defs><style>.cls-1{fill:#001cb9;}</style></defs><title>icon_tel</title><g id="图层_2" data-name="图层 2"><g id="图层_1-2" data-name="图层 1"><path class="cls-1" d="M43.66,34.09l-7.88-5.25a3.6,3.6,0,0,0-2.2-.76,4,4,0,0,0-1.94.53L27.33,31,27,30.7a72.81,72.81,0,0,1-6.5-5.9l-.11-.11-.13-.12a73.12,73.12,0,0,1-5.85-6.47l-.28-.35,2.38-4.3a3.7,3.7,0,0,0-.27-4.21L11,1.41A3.05,3.05,0,0,0,8.51,0a2.28,2.28,0,0,0-.35,0C7,.15,4.77,1.74,2.06,4.29c-2.3,2-2.12,3.94-2,4.51,1,6.67,5.64,14.28,13.55,22l.35.35.44.44.06.06c7.85,7.9,15.2,12.4,21.87,13.36a2.8,2.8,0,0,0,.58.06,5.23,5.23,0,0,0,3.88-2c2.55-2.71,4.14-5,4.28-6.15A3,3,0,0,0,43.66,34.09Zm-.15,2.59v.14c-.22,1-2.5,3.71-3.87,5.16a3.75,3.75,0,0,1-2.77,1.54h0l-.19,0-.1,0c-4.33-.61-11.49-3.35-21-12.92L15,30l-.34-.34C7.14,22.29,2.49,14.77,1.61,8.52l0-.1c0-.23-.17-1.46,1.54-3C4.64,4,7.3,1.82,8.2,1.6h.2l.08,0,.15,0A1.56,1.56,0,0,1,9.7,2.3L15,10.2l.06.09a2.08,2.08,0,0,1,.09,2.42l-2.63,4.76a.78.78,0,0,0,.07.87,80.32,80.32,0,0,0,6.74,7.51,80.17,80.17,0,0,0,7.47,6.7.78.78,0,0,0,.87.07L32.39,30a2.47,2.47,0,0,1,1.19-.33,2.08,2.08,0,0,1,1,.24h.07l.19.17.09.07,7.87,5.25a1.58,1.58,0,0,1,.75,1.08v.22Z"/><path class="cls-1" d="M34.34,18.61A9.51,9.51,0,0,0,25.49,10V8.34A11.15,11.15,0,0,1,36,18.56Z"/><path class="cls-1" d="M40.29,18.22A15.21,15.21,0,0,0,25.72,4V2.39A16.85,16.85,0,0,1,41.94,18.18Z"/></g></g></svg>