<svg xmlns="http://www.w3.org/2000/svg" viewBox="0 0 24.92 26.03"><defs><style>.cls-1{fill:none;stroke:#001cb9;stroke-linecap:round;stroke-linejoin:round;stroke-width:1.03px;}.cls-2{fill:#001cb9;}</style></defs><title>icon_product_principle_blue</title><g id="图层_2" data-name="图层 2"><g id="图层_1-2" data-name="图层 1"><circle class="cls-1" cx="12.27" cy="12.27" r="6.11" transform="translate(-1.4 22.95) rotate(-83.01)"/><line class="cls-1" x1="18.34" y1="13.01" x2="19.42" y2="13.14"/><line class="cls-1" x1="5.11" y1="11.39" x2="6.13" y2="11.52"/><line class="cls-1" x1="17.88" y1="9.88" x2="18.9" y2="9.45"/><line class="cls-1" x1="5.63" y1="15.09" x2="6.62" y2="14.66"/><line class="cls-1" x1="15.97" y1="7.35" x2="16.61" y2="6.51"/><line class="cls-1" x1="7.93" y1="18.03" x2="8.58" y2="17.16"/><line class="cls-1" x1="13.02" y1="6.11" x2="13.14" y2="5.11"/><line class="cls-1" x1="11.39" y1="19.42" x2="11.52" y2="18.39"/><line class="cls-1" x1="9.86" y1="6.6" x2="9.45" y2="5.63"/><line class="cls-1" x1="15.08" y1="18.9" x2="14.66" y2="17.9"/><line class="cls-1" x1="7.39" y1="8.6" x2="6.5" y2="7.93"/><line class="cls-1" x1="18.03" y1="16.61" x2="17.2" y2="15.98"/><circle class="cls-1" cx="20.1" cy="21.21" r="3.09"/><line class="cls-1" x1="23.23" y1="21.21" x2="24.4" y2="21.21"/><path class="cls-1" d="M23.23,21.21"/><path class="cls-1" d="M17,21.21"/><line class="cls-1" x1="15.79" y1="21.21" x2="16.86" y2="21.21"/><line class="cls-1" x1="22.34" y1="18.97" x2="23.14" y2="18.17"/><path class="cls-1" d="M22.34,19"/><path class="cls-1" d="M17.86,23.45"/><line class="cls-1" x1="17.05" y1="24.26" x2="17.86" y2="23.45"/><line class="cls-1" x1="20.1" y1="17.98" x2="20.1" y2="16.91"/><path class="cls-1" d="M20.1,18.12"/><path class="cls-1" d="M20.1,24.37"/><line class="cls-1" x1="20.1" y1="25.52" x2="20.1" y2="24.37"/><line class="cls-1" x1="17.87" y1="18.99" x2="17.05" y2="18.17"/><path class="cls-1" d="M17.93,19"/><path class="cls-1" d="M22.28,23.4"/><line class="cls-1" x1="23.14" y1="24.26" x2="22.37" y2="23.48"/><path class="cls-1" d="M9.12,12.27a3.14,3.14,0,0,1,3.14-3.14"/><circle class="cls-2" cx="12.27" cy="12.27" r="0.79"/><circle class="cls-2" cx="20.1" cy="21.21" r="0.79"/><path class="cls-1" d="M20.56,3.94A11.71,11.71,0,0,1,24,12.27"/><path class="cls-1" d="M4,20.57A11.75,11.75,0,0,1,12.27.52"/></g></g></svg>