<svg xmlns="http://www.w3.org/2000/svg" viewBox="0 0 61.49 61.49"><defs><style>.cls-1{fill:#001cb9;}.cls-2{fill:none;stroke:#001cb9;stroke-miterlimit:10;stroke-width:1.49px;}</style></defs><title>icon_userimage</title><g id="图层_2" data-name="图层 2"><g id="图层_1-2" data-name="图层 1"><rect class="cls-1" x="27.96" y="23.31" width="1.79" height="1.79"/><rect class="cls-1" x="33.56" y="23.31" width="1.79" height="1.79"/><rect class="cls-1" x="27.96" y="29.28" width="1.79" height="1.79"/><rect class="cls-1" x="33.56" y="29.28" width="1.79" height="1.79"/><rect class="cls-1" x="15.58" y="41.11" width="1.79" height="1.79"/><rect class="cls-1" x="15.58" y="53.04" width="1.79" height="1.79"/><rect class="cls-1" x="15.58" y="47.07" width="1.79" height="1.79"/><rect class="cls-1" x="45.95" y="53.04" width="1.79" height="1.79"/><rect class="cls-1" x="45.95" y="47.07" width="1.79" height="1.79"/><rect class="cls-1" x="27.96" y="53.15" width="1.79" height="1.79"/><rect class="cls-1" x="33.56" y="53.15" width="1.79" height="1.79"/><rect class="cls-1" x="27.96" y="47.19" width="1.79" height="1.79"/><rect class="cls-1" x="33.56" y="47.19" width="1.79" height="1.79"/><rect class="cls-1" x="27.96" y="41.22" width="1.79" height="1.79"/><rect class="cls-1" x="33.56" y="41.22" width="1.79" height="1.79"/><rect class="cls-1" x="27.96" y="35.25" width="1.79" height="1.79"/><rect class="cls-1" x="33.56" y="35.25" width="1.79" height="1.79"/><path class="cls-1" d="M9.78,53.15V38.53a3.14,3.14,0,0,1,3.13-3.13h4.44v1.42H12.92a1.74,1.74,0,0,0-1.72,1.72V53.15Z"/><path class="cls-1" d="M52.12,51.18V44.54a1.74,1.74,0,0,0-1.72-1.72H45.94V41.41H50.4a3.14,3.14,0,0,1,3.13,3.13v6.63Z"/><path class="cls-1" d="M40.35,59V20.87a1.74,1.74,0,0,0-1.72-1.72h-14A1.74,1.74,0,0,0,23,20.87V59.56H21.54V20.87a3.14,3.14,0,0,1,3.13-3.13h6.25V12.6a.71.71,0,0,1,1.42,0v5.13h6.31a3.14,3.14,0,0,1,3.13,3.13V59Z"/><circle class="cls-2" cx="30.75" cy="30.75" r="30"/></g></g></svg>