<svg xmlns="http://www.w3.org/2000/svg" viewBox="0 0 40 39.27"><defs><style>.cls-1{fill:#ff2600;}.cls-2{fill:#001cb9;}</style></defs><title>icon_wallet</title><g id="图层_2" data-name="图层 2"><g id="图层_1-2" data-name="图层 1"><polygon class="cls-1" points="28.63 6.35 26.54 1.79 16.61 6.35 13.38 6.35 27.2 0 30.12 6.35 28.63 6.35"/><circle class="cls-1" cx="25.24" cy="24.28" r="1.03"/><path class="cls-2" d="M4.23,39.27A4.23,4.23,0,0,1,0,35V13.84A4.23,4.23,0,0,1,4.23,9.61H32.78A4.23,4.23,0,0,1,37,13.84V18h2.32a.68.68,0,0,1,.68.68v11.6a.68.68,0,0,1-.68.68H37V35a4.23,4.23,0,0,1-4.23,4.23Zm0-28.3a2.88,2.88,0,0,0-2.88,2.88V35a2.88,2.88,0,0,0,2.88,2.88H32.78A2.88,2.88,0,0,0,35.66,35V30.92h-12a4.23,4.23,0,0,1-4.23-4.23v-4.5A4.23,4.23,0,0,1,23.65,18h12V13.84A2.88,2.88,0,0,0,32.78,11Zm19.42,8.35a2.88,2.88,0,0,0-2.88,2.88v4.5a2.88,2.88,0,0,0,2.88,2.88h15V19.31Z"/></g></g></svg>