<svg xmlns="http://www.w3.org/2000/svg" viewBox="0 0 52.34 54.68"><defs><style>.cls-1{fill:none;stroke:#001cb9;stroke-linecap:round;stroke-linejoin:round;stroke-width:2.17px;}.cls-2{fill:#001cb9;}</style></defs><title>icon_principle</title><g id="图层_2" data-name="图层 2"><g id="图层_1-2" data-name="图层 1"><circle class="cls-1" cx="25.76" cy="25.77" r="12.83" transform="translate(-2.95 48.2) rotate(-83.01)"/><line class="cls-1" x1="38.53" y1="27.33" x2="40.8" y2="27.61"/><line class="cls-1" x1="10.73" y1="23.92" x2="12.89" y2="24.19"/><line class="cls-1" x1="37.56" y1="20.75" x2="39.71" y2="19.85"/><line class="cls-1" x1="11.82" y1="31.69" x2="13.91" y2="30.8"/><line class="cls-1" x1="33.54" y1="15.44" x2="34.88" y2="13.67"/><line class="cls-1" x1="16.65" y1="37.87" x2="18.03" y2="36.03"/><line class="cls-1" x1="27.35" y1="12.84" x2="27.61" y2="10.73"/><line class="cls-1" x1="23.92" y1="40.8" x2="24.19" y2="38.62"/><line class="cls-1" x1="20.71" y1="13.86" x2="19.84" y2="11.82"/><line class="cls-1" x1="31.69" y1="39.71" x2="30.79" y2="37.6"/><line class="cls-1" x1="15.53" y1="18.06" x2="13.66" y2="16.65"/><line class="cls-1" x1="37.86" y1="34.88" x2="36.12" y2="33.57"/><circle class="cls-1" cx="42.21" cy="44.56" r="6.5"/><line class="cls-1" x1="48.8" y1="44.56" x2="51.25" y2="44.56"/><path class="cls-1" d="M48.8,44.56"/><path class="cls-1" d="M35.72,44.56"/><line class="cls-1" x1="33.17" y1="44.56" x2="35.42" y2="44.56"/><line class="cls-1" x1="46.92" y1="39.85" x2="48.61" y2="38.16"/><path class="cls-1" d="M46.92,39.85"/><path class="cls-1" d="M37.52,49.25"/><line class="cls-1" x1="35.82" y1="50.95" x2="37.52" y2="49.25"/><line class="cls-1" x1="42.21" y1="37.77" x2="42.21" y2="35.52"/><path class="cls-1" d="M42.21,38.07"/><path class="cls-1" d="M42.21,51.19"/><line class="cls-1" x1="42.21" y1="53.6" x2="42.21" y2="51.19"/><line class="cls-1" x1="37.54" y1="39.89" x2="35.82" y2="38.16"/><path class="cls-1" d="M37.67,40"/><path class="cls-1" d="M46.81,49.15"/><line class="cls-1" x1="48.61" y1="50.95" x2="46.99" y2="49.33"/><path class="cls-1" d="M19.17,25.77a6.6,6.6,0,0,1,6.6-6.6"/><circle class="cls-2" cx="25.76" cy="25.77" r="1.65"/><circle class="cls-2" cx="42.21" cy="44.56" r="1.65"/><path class="cls-1" d="M43.19,8.29a24.6,24.6,0,0,1,7.26,17.48"/><path class="cls-1" d="M8.31,43.22A24.68,24.68,0,0,1,25.76,1.09"/></g></g></svg>