<svg xmlns="http://www.w3.org/2000/svg" viewBox="0 0 119.8 119.11"><defs><style>.cls-1{fill:none;stroke:#001cb9;stroke-linecap:round;stroke-linejoin:round;stroke-width:5.59px;opacity:0.2;}.cls-2{fill:#001cb9;}.cls-3{fill:#ff2600;}</style></defs><title>icon_buy</title><g id="图层_2" data-name="图层 2"><g id="图层_1-2" data-name="图层 1"><path class="cls-1" d="M88.26,90.4"/><path class="cls-2" d="M59.94,75.8a16.6,16.6,0,1,1,0-33.19,2.5,2.5,0,0,1,0,5A11.6,11.6,0,1,0,70.28,64.45a2.5,2.5,0,1,1,4.46,2.27A16.53,16.53,0,0,1,59.94,75.8Z"/><path class="cls-2" d="M59.94,89.51a30.31,30.31,0,1,1,0-60.61,2.5,2.5,0,0,1,0,5,25.31,25.31,0,1,0,21.92,38,2.5,2.5,0,1,1,4.33,2.51A30.42,30.42,0,0,1,59.94,89.51Z"/><path class="cls-3" d="M72.51,68.08a2.5,2.5,0,0,1-2.23-3.63,11.46,11.46,0,0,0,1.25-5.25,11.61,11.61,0,0,0-11.59-11.6,2.5,2.5,0,0,1,0-5,16.61,16.61,0,0,1,16.59,16.6,16.41,16.41,0,0,1-1.8,7.51A2.5,2.5,0,0,1,72.51,68.08Z"/><path class="cls-3" d="M97,81.83a2.5,2.5,0,0,1-2.19-3.7A39.67,39.67,0,0,0,59.94,19.55a2.5,2.5,0,1,1,0-5,44.68,44.68,0,0,1,39.25,66A2.5,2.5,0,0,1,97,81.83Z"/><path class="cls-2" d="M59.94,103.86a44.66,44.66,0,1,1,0-89.32,2.5,2.5,0,0,1,0,5,39.66,39.66,0,1,0,26.68,69A2.5,2.5,0,1,1,90,92.24,44.55,44.55,0,0,1,59.94,103.86Z"/><path class="cls-3" d="M84,75.62a2.5,2.5,0,0,1-2.16-3.75,25.32,25.32,0,0,0-21.92-38,2.5,2.5,0,0,1,0-5A30.32,30.32,0,0,1,86.18,74.37,2.5,2.5,0,0,1,84,75.62Z"/><path class="cls-2" d="M96.67,83.36A2.49,2.49,0,0,1,95.39,83L58.75,61.23a2.5,2.5,0,0,1-1.22-2.15V2.5a2.5,2.5,0,0,1,5,0V57.66L97.95,78.71a2.5,2.5,0,0,1-1.28,4.65Z"/><circle class="cls-2" cx="31.84" cy="10.83" r="3.91"/><circle class="cls-2" cx="11.34" cy="31.34" r="3.91"/><circle class="cls-2" cx="3.91" cy="59.27" r="3.91"/><circle class="cls-2" cx="11.34" cy="87.2" r="3.91"/><circle class="cls-2" cx="31.83" cy="107.77" r="3.91"/><circle class="cls-2" cx="59.77" cy="115.2" r="3.91"/><circle class="cls-2" cx="87.7" cy="107.52" r="3.91"/><circle class="cls-2" cx="108.46" cy="87.53" r="3.91"/><circle class="cls-2" cx="115.89" cy="59.33" r="3.91"/><circle class="cls-2" cx="108.2" cy="31.14" r="3.91"/><circle class="cls-2" cx="87.7" cy="10.9" r="3.91"/></g></g></svg>