<svg xmlns="http://www.w3.org/2000/svg" viewBox="0 0 30.37 30.37"><defs><style>.cls-1{fill:#001cb9;}.cls-2,.cls-3{fill:none;stroke-linecap:round;stroke-linejoin:round;stroke-width:1.14px;}.cls-2{stroke:#001cb9;}.cls-3{stroke:#ff2600;}</style></defs><title>icon_sidemenu_account</title><g id="图层_2" data-name="图层 2"><g id="图层_1-2" data-name="图层 1"><path class="cls-1" d="M15.18,22.12a.4.4,0,0,1-.4-.4V17.51H10.9a.4.4,0,0,1,0-.8h3.89V14.84H10.9a.4.4,0,0,1,0-.8h3.7l-3.47-3.85a.4.4,0,0,1,.29-.67.4.4,0,0,1,.29.13l3.48,3.85,3.48-3.85a.4.4,0,0,1,.57,0,.4.4,0,0,1,0,.57L15.77,14h3.7a.4.4,0,0,1,0,.8H15.58V16.7h3.89a.4.4,0,0,1,0,.8H15.58v4.21A.4.4,0,0,1,15.18,22.12Z"/><circle class="cls-2" cx="15.18" cy="15.18" r="11.6"/><path class="cls-3" d="M15.18,29.8A14.61,14.61,0,0,1,.57,15.18"/><path class="cls-3" d="M15.18.57A14.61,14.61,0,0,1,29.8,15.18"/></g></g></svg>