<svg xmlns="http://www.w3.org/2000/svg" viewBox="0 0 20 20.25"><defs><style>.cls-1{fill:#b3b7c6;}</style></defs><title>icon_calendar</title><g id="图层_2" data-name="图层 2"><g id="图层_1-2" data-name="图层 1"><path class="cls-1" d="M1.56,20.25A1.56,1.56,0,0,1,0,18.69V3.57A1.56,1.56,0,0,1,1.56,2H4.23V.35a.35.35,0,1,1,.71,0V2h0V4.68a.35.35,0,1,1-.71,0v-2H1.56a.87.87,0,0,0-.85.85V7.29H19.29V3.57a.87.87,0,0,0-.85-.85H16.76V2h1.68A1.56,1.56,0,0,1,20,3.57V18.69a1.56,1.56,0,0,1-1.56,1.56ZM.71,18.69a.87.87,0,0,0,.85.85H18.44a.87.87,0,0,0,.85-.85V8H.71Z"/><path class="cls-1" d="M14.33,5A.35.35,0,0,1,14,4.68v-2H11.89V2H14V.35a.35.35,0,1,1,.71,0V4.68A.35.35,0,0,1,14.33,5Z"/><path class="cls-1" d="M9.46,5a.35.35,0,0,1-.35-.35v-2H7V2H9.1V.35a.35.35,0,1,1,.71,0V2h0V4.68A.35.35,0,0,1,9.46,5Z"/><path class="cls-1" d="M3.95,13.8c-.11,0-.21-.16-.21-.35s.09-.35.21-.35h5c.11,0,.21.16.21.35s-.09.35-.21.35Z"/><path class="cls-1" d="M3.95,16.79c-.11,0-.21-.16-.21-.35s.09-.35.21-.35h5c.11,0,.21.16.21.35s-.09.35-.21.35Z"/><path class="cls-1" d="M3.95,10.83c-.11,0-.21-.16-.21-.35s.09-.35.21-.35h5c.11,0,.21.16.21.35s-.09.35-.21.35Z"/><path class="cls-1" d="M11.26,13.8c-.11,0-.21-.16-.21-.35s.09-.35.21-.35h5c.11,0,.21.16.21.35s-.09.35-.21.35Z"/><path class="cls-1" d="M11.26,16.79c-.11,0-.21-.16-.21-.35s.09-.35.21-.35h5c.11,0,.21.16.21.35s-.09.35-.21.35Z"/><path class="cls-1" d="M11.26,10.83c-.11,0-.21-.16-.21-.35s.09-.35.21-.35h5c.11,0,.21.16.21.35s-.09.35-.21.35Z"/></g></g></svg>