<svg xmlns="http://www.w3.org/2000/svg" viewBox="0 0 20 20"><defs><style>.cls-1{fill:#0036fc;}</style></defs><title>icon_search_blue</title><g id="图层_2" data-name="图层 2"><g id="图层_1-2" data-name="图层 1"><g id="search"><path class="cls-1" d="M0,7.5a7.5,7.5,0,0,0,11,6.63l5.21,5.22h0a2.2,2.2,0,1,0,3.12-3.12h0L14.13,11A7.5,7.5,0,1,0,0,7.5ZM18.56,17A1.1,1.1,0,1,1,17,18.56h0l-5-5A7.61,7.61,0,0,0,13.52,12ZM13.75,7.5A6.25,6.25,0,1,1,7.5,1.25,6.25,6.25,0,0,1,13.75,7.5Z"/><path class="cls-1" d="M3.12,7.5A4.37,4.37,0,0,0,7.5,11.88a.31.31,0,0,0,0-.63A3.75,3.75,0,0,1,3.75,7.5a.31.31,0,1,0-.63,0Z"/></g></g></g></svg>