<svg xmlns="http://www.w3.org/2000/svg" viewBox="0 0 57.48 56.48"><defs><style>.cls-1{fill:none;stroke:#001cb9;stroke-linecap:round;stroke-linejoin:round;stroke-width:1.94px;}</style></defs><title>icon_solution</title><g id="图层_2" data-name="图层 2"><g id="图层_1-2" data-name="图层 1"><circle class="cls-1" cx="28.38" cy="27.98" r="13.03"/><path class="cls-1" d="M9.85,22.29A19.42,19.42,0,0,1,22.47,9.52l.32-.1"/><path class="cls-1" d="M22.9,46.56A19.41,19.41,0,0,1,9.79,33.44"/><path class="cls-1" d="M47,33.46a19.43,19.43,0,0,1-12.83,13"/><path class="cls-1" d="M34,9.43A19.42,19.42,0,0,1,46.89,22.22"/><path class="cls-1" d="M35,28a6.58,6.58,0,1,1-6.58-6.58A6.58,6.58,0,0,1,35,28Z"/><line class="cls-1" x1="28.29" y1="14.85" x2="28.29" y2="0.97"/><line class="cls-1" x1="15.49" y1="27.83" x2="0.97" y2="27.83"/><line class="cls-1" x1="41.63" y1="28.2" x2="56.51" y2="28.2"/><line class="cls-1" x1="28.47" y1="41.17" x2="28.47" y2="55.51"/></g></g></svg>