<svg xmlns="http://www.w3.org/2000/svg" viewBox="0 0 37.65 40"><defs><style>.cls-1{fill:#001cb9;}.cls-2{fill:#ff2600;}</style></defs><title>icon_remittance</title><g id="图层_2" data-name="图层 2"><g id="图层_1-2" data-name="图层 1"><path class="cls-1" d="M33.39,0H16.9a4.27,4.27,0,0,0-4.26,4.26v6.55L.12,24.11,0,40H1.36l.11-15.35L12.63,12.76v12L8.76,28.65l1,1,8.3-8.3a3.77,3.77,0,0,1,2.64-1.12,3.13,3.13,0,0,1,3.19,3.31A3.75,3.75,0,0,1,22.73,26l-14,14h1.93l3.56-3.56.39.24a4.25,4.25,0,0,0,2.26.65H33.39a4.27,4.27,0,0,0,4.26-4.26V4.26A4.27,4.27,0,0,0,33.39,0ZM29.84,36H16.9a2.87,2.87,0,0,1-.85-.14l-.91-.28L23.7,27a5.11,5.11,0,0,0,1.51-3.44,4.49,4.49,0,0,0-4.55-4.72,5.15,5.15,0,0,0-3.61,1.52L14,23.41V4.26a2.91,2.91,0,0,1,2.9-2.9H29.84Zm6.45-2.9a2.91,2.91,0,0,1-2.9,2.9H31.2V1.36h2.19a2.91,2.91,0,0,1,2.9,2.9Z"/><rect class="cls-2" x="29.84" y="1.36" width="1.36" height="34.61"/></g></g></svg>