<svg xmlns="http://www.w3.org/2000/svg" viewBox="0 0 22.56 24.6"><defs><style>.cls-1{fill:#fff;}</style></defs><title>icon_help_Q&amp;amp;A_blue_1</title><g id="图层_2" data-name="图层 2"><g id="图层_1-2" data-name="图层 1"><path class="cls-1" d="M9.24,12.19a3.17,3.17,0,1,0,3.17,3.17A3.18,3.18,0,0,0,9.24,12.19Zm0,5.51a2.34,2.34,0,1,1,2.34-2.34A2.34,2.34,0,0,1,9.24,17.7Z"/><path class="cls-1" d="M22.56,2.58A2.58,2.58,0,0,0,20,0H12.38A2.59,2.59,0,0,0,9.79,2.58V6.12H8a.42.42,0,0,0-.42.42V7.78l-.15,0a7.65,7.65,0,0,0-2.21.92l-.13.08-.87-.87a.42.42,0,0,0-.59,0L1.81,9.72a.42.42,0,0,0,0,.59l.87.87-.08.13a7.66,7.66,0,0,0-.92,2.21l0,.15H.42A.42.42,0,0,0,0,14.1v2.52A.42.42,0,0,0,.42,17H1.65l0,.15a7.67,7.67,0,0,0,.92,2.21l.08.13-.87.87a.42.42,0,0,0,0,.59L3.6,22.79a.42.42,0,0,0,.59,0l.87-.87.13.08a7.66,7.66,0,0,0,2.21.92l.15,0v1.23A.42.42,0,0,0,8,24.6H10.5a.42.42,0,0,0,.42-.42V22.95l.15,0A7.66,7.66,0,0,0,13.28,22l.13-.08.87.87a.42.42,0,0,0,.59,0L16.66,21a.42.42,0,0,0,0-.59l-.87-.87.08-.13a7.66,7.66,0,0,0,.92-2.21l0-.15h1.23a.42.42,0,0,0,.42-.42V14.1a.42.42,0,0,0-.42-.42H16.82l0-.15a7.83,7.83,0,0,0-.25-.82l-.05-.14,1.34-1H20A2.58,2.58,0,0,0,22.56,9ZM17.64,14.52V16.2H16.48a.42.42,0,0,0-.41.35,6.86,6.86,0,0,1-1.16,2.8.42.42,0,0,0,0,.54l.82.82L14.58,21.9l-.82-.82a.42.42,0,0,0-.54,0,6.86,6.86,0,0,1-2.8,1.16.42.42,0,0,0-.35.41v1.16H8.39V22.6A.42.42,0,0,0,8,22.19,6.83,6.83,0,0,1,5.25,21a.42.42,0,0,0-.54,0l-.82.82L2.7,20.71l.82-.82a.42.42,0,0,0,0-.54,6.84,6.84,0,0,1-1.16-2.8A.42.42,0,0,0,2,16.2H.83V14.52H2a.42.42,0,0,0,.41-.35,6.84,6.84,0,0,1,1.16-2.8.42.42,0,0,0,0-.54L2.7,10,3.89,8.82l.82.82a.42.42,0,0,0,.54,0A6.84,6.84,0,0,1,8,8.53a.42.42,0,0,0,.35-.41V7h1.4V9a2.58,2.58,0,0,0,2.58,2.58h.82v2.52a.42.42,0,0,0,.23.37.43.43,0,0,0,.43,0l1.93-1.39.08.27a7,7,0,0,1,.2.84.42.42,0,0,0,.41.35ZM21.73,9A1.75,1.75,0,0,1,20,10.76H17.7a.42.42,0,0,0-.24.08L14,13.3V11.18a.42.42,0,0,0-.42-.42H12.38A1.75,1.75,0,0,1,10.63,9V2.58A1.75,1.75,0,0,1,12.38.83H20a1.75,1.75,0,0,1,1.75,1.75Z"/><path class="cls-1" d="M16.4,7.65l.18-.18c.8-.79,1.9-1.88,1.9-3.06a2.38,2.38,0,1,0-4.76,0,.42.42,0,0,0,.83,0,1.55,1.55,0,1,1,3.09,0c0,.83-1,1.81-1.65,2.46l-.19.18a.42.42,0,0,0,0,.59A.43.43,0,0,0,16.4,7.65Z"/><path class="cls-1" d="M15.39,9.24a.55.55,0,0,0,.16.38.56.56,0,0,0,.77,0,.54.54,0,0,0-.38-.92.54.54,0,0,0-.54.54Z"/></g></g></svg>