<svg xmlns="http://www.w3.org/2000/svg" viewBox="0 0 28.96 27.25"><defs><style>.cls-1{fill:#001cb9;}</style></defs><title>icon_account_invoice_blue</title><g id="图层_2" data-name="图层 2"><g id="图层_1-2" data-name="图层 1"><path class="cls-1" d="M0,27.25V11.54H16.8l-.29.72-.08.17H.89V26.36H26.14V16.13L27,13.93V27.25Z"/><path class="cls-1" d="M4.17,16.37a.44.44,0,0,1,0-.89H14a.44.44,0,0,1,0,.89Z"/><path class="cls-1" d="M4.17,19.63a.44.44,0,0,1,0-.89H14a.44.44,0,0,1,0,.89Z"/><path class="cls-1" d="M15.46,23.6a.44.44,0,0,1,0-.89h6.3a.44.44,0,1,1,0,.89Z"/><path class="cls-1" d="M28.77,1.93A2.36,2.36,0,0,0,27.47.66L26.26.17a2.38,2.38,0,0,0-3.09,1.32L22.4,3.4v0L21.7,5.11s0,0,0,0l-3.26,8.1a4.51,4.51,0,0,0-.33.88l.84,4.4a.52.52,0,0,1,0,.29L18.41,20a.43.43,0,1,0,.8.32l.49-1.21a.51.51,0,0,1,.19-.23l3.79-2.6c.16-.3.28-.57.4-.84L28.79,3.75A2.36,2.36,0,0,0,28.77,1.93ZM22,16.44l-1.65,1.15a.51.51,0,0,1-.3.09.52.52,0,0,1-.2,0,.51.51,0,0,1-.31-.38l-.35-2a.51.51,0,0,1,.7-.57l2,.8a.51.51,0,0,1,.1.9Zm4.51-9.35-3.06,7.6A.51.51,0,0,1,23,15a.53.53,0,0,1-.19,0l-3.08-1.24a.52.52,0,0,1-.28-.28.51.51,0,0,1,0-.39l3.06-7.6A.51.51,0,0,1,23,5.15a.53.53,0,0,1,.19,0l3.08,1.24a.52.52,0,0,1,.28.27A.51.51,0,0,1,26.52,7.09ZM28,3.43l-.77,1.91a.51.51,0,0,1-.67.28L23.48,4.39a.52.52,0,0,1-.28-.67L24,1.81A1.56,1.56,0,0,1,25.39.86a1.46,1.46,0,0,1,.55.11l1.22.49a1.53,1.53,0,0,1,.84,2Z"/></g></g></svg>