<svg xmlns="http://www.w3.org/2000/svg" viewBox="0 0 23.38 26.81"><defs><style>.cls-1{fill:#001cb9;}.cls-2{fill:#ff2600;}</style></defs><title>icon_sidemenu_report</title><g id="图层_2" data-name="图层 2"><g id="图层_1-2" data-name="图层 1"><path class="cls-1" d="M23.37,20.67V5.07a2,2,0,0,0-2-2H16.11V3.2a4.64,4.64,0,0,1-.18.82l-.05.16h5.52a.9.9,0,0,1,.89.89V20.54l-6.75,5.12V19.78h3.23V18.69H14.43v7H2a.9.9,0,0,1-.89-.89V5.07A.9.9,0,0,1,2,4.19H7.1L7,4a4.62,4.62,0,0,1-.18-.82V3.09H2a2,2,0,0,0-2,2V24.83a2,2,0,0,0,2,2H15.67l.15,0a.81.81,0,0,0,.16-.1l7.18-5.45a.54.54,0,0,0,.17-.21l0-.11a.55.55,0,0,0,0-.21Zm-.12.05v0Z"/><path class="cls-2" d="M18,10.26H5a.55.55,0,1,0,0,1.09H18a.55.55,0,0,0,0-1.09Z"/><path class="cls-2" d="M18,13.79H5a.55.55,0,0,0,0,1.09H18a.55.55,0,0,0,0-1.09Z"/><path class="cls-1" d="M13.46.89A2.62,2.62,0,0,0,11.65,0h-.16a2.63,2.63,0,0,0-1.2,5l.16.08L10,6.59a.55.55,0,0,0,.39.67l.14,0a.55.55,0,0,0,.53-.41l.42-1.6h.16A2.63,2.63,0,0,0,13.46.89ZM13,2.73a1.54,1.54,0,0,1-1.53,1.45h-.1a1.54,1.54,0,0,1,.09-3.08h.1A1.54,1.54,0,0,1,13,2.73Z"/></g></g></svg>