<svg xmlns="http://www.w3.org/2000/svg" viewBox="0 0 115.62 130"><defs><style>.cls-1{fill:#231815;}.cls-2{fill:#001cb9;}.cls-3{fill:#ff2600;}</style></defs><title>logo_</title><g id="图层_2" data-name="图层 2"><g id="图层_1-2" data-name="图层 1"><path class="cls-1" d="M70.28,127.32a.7.7,0,0,1,.7.7.69.69,0,0,1-.7.7H67.81A3.69,3.69,0,0,1,64.13,125V110.78a.69.69,0,0,1,.7-.7.7.7,0,0,1,.7.7v5.8h4.73a.69.69,0,1,1,0,1.37H65.53V125a2.29,2.29,0,0,0,2.28,2.29Z"/><path class="cls-1" d="M87.83,110.78a.69.69,0,0,1,.7-.7.7.7,0,0,1,.7.7V125a2.29,2.29,0,0,0,2.29,2.29h2.31a.7.7,0,1,1,0,1.4H91.52A3.69,3.69,0,0,1,87.83,125Z"/><path class="cls-1" d="M47.28,128.87a.58.58,0,0,1-.64-.64v-2A7.11,7.11,0,0,1,44.49,128a6.92,6.92,0,0,1-5.95.3,6.79,6.79,0,0,1-3.61-3.59,6.85,6.85,0,0,1,0-5.3,6.7,6.7,0,0,1,1.45-2.13,6.93,6.93,0,0,1,2.16-1.43,6.81,6.81,0,0,1,5.28,0A7.18,7.18,0,0,1,46,117.32a6.58,6.58,0,0,1,2,4.78v6.13C48,128.64,47.73,128.87,47.28,128.87Zm-6.1-12.14a5.42,5.42,0,0,0-2.08.41,5.24,5.24,0,0,0-1.71,1.14A5.66,5.66,0,0,0,36.21,120a5.16,5.16,0,0,0-.43,2.11,5.29,5.29,0,0,0,.43,2.11A5.9,5.9,0,0,0,37.38,126a5.4,5.4,0,0,0,1.71,1.15,5.45,5.45,0,0,0,4.2,0A5.47,5.47,0,0,0,45,126a5.67,5.67,0,0,0,1.2-1.77,5.32,5.32,0,0,0,.44-2.11A5.19,5.19,0,0,0,46.2,120a5.41,5.41,0,0,0-1.2-1.71,5.26,5.26,0,0,0-1.7-1.14A5.43,5.43,0,0,0,41.17,116.73Z"/><path class="cls-1" d="M56.87,128.87a6.52,6.52,0,0,1-2.62-.53,7,7,0,0,1-2.14-1.43,6.72,6.72,0,0,1-1.45-2.13,6.61,6.61,0,0,1-.53-2.65,6.52,6.52,0,0,1,.53-2.64,7,7,0,0,1,1.45-2.13,6.69,6.69,0,0,1,4.76-2,6.83,6.83,0,0,1,2.63.52,6.32,6.32,0,0,1,2.13,1.44.67.67,0,0,1,0,.94.76.76,0,0,1-.51.19.66.66,0,0,1-.48-.19A5.17,5.17,0,0,0,59,117.15a5.24,5.24,0,0,0-2.09-.42,5.34,5.34,0,0,0-2.11.42A5.86,5.86,0,0,0,53,118.31,5.58,5.58,0,0,0,51.88,120a5.42,5.42,0,0,0-.41,2.08,5.52,5.52,0,0,0,.41,2.1A5.25,5.25,0,0,0,53,126a5.82,5.82,0,0,0,1.74,1.15,5.33,5.33,0,0,0,2.11.42,5.18,5.18,0,0,0,2.06-.41A5.27,5.27,0,0,0,60.58,126a.75.75,0,0,1,1,0,.75.75,0,0,1,.19.5.55.55,0,0,1-.2.45,6.94,6.94,0,0,1-2.12,1.41A6.53,6.53,0,0,1,56.87,128.87Z"/><path class="cls-1" d="M85.11,128.87a.58.58,0,0,1-.64-.64v-2A7.09,7.09,0,0,1,82.32,128a6.7,6.7,0,0,1-3.31.83,6.63,6.63,0,0,1-2.63-.53,6.77,6.77,0,0,1-3.61-3.59,6.85,6.85,0,0,1,0-5.29,6.69,6.69,0,0,1,1.45-2.13,6.91,6.91,0,0,1,2.16-1.43,6.81,6.81,0,0,1,5.28,0,7.16,7.16,0,0,1,2.16,1.43,6.59,6.59,0,0,1,2,4.78v6.13C85.81,128.64,85.56,128.87,85.11,128.87ZM79,116.73a5.4,5.4,0,0,0-2.08.41,5.21,5.21,0,0,0-1.71,1.14A5.65,5.65,0,0,0,74,120a5.18,5.18,0,0,0-.44,2.11,5.31,5.31,0,0,0,.44,2.11A5.88,5.88,0,0,0,75.22,126a5.37,5.37,0,0,0,1.71,1.15,5.44,5.44,0,0,0,4.2,0,5.48,5.48,0,0,0,1.7-1.15,5.66,5.66,0,0,0,1.2-1.77,5.29,5.29,0,0,0,.44-2.11A5.16,5.16,0,0,0,84,120a5.38,5.38,0,0,0-1.19-1.71,5.27,5.27,0,0,0-1.7-1.14A5.42,5.42,0,0,0,79,116.73Z"/><path class="cls-1" d="M21.93,128.87a.62.62,0,0,1-.47-.2.63.63,0,0,1-.18-.42v-6.32a6.08,6.08,0,0,1,1-3.54,6.62,6.62,0,0,1,2.32-2.21,6.36,6.36,0,0,1,3.22-.83,6.46,6.46,0,0,1,4.66,1.92.72.72,0,0,1,.25.53.66.66,0,0,1-.26.47.69.69,0,0,1-.45.15.7.7,0,0,1-.44-.14,5.13,5.13,0,0,0-1.71-1.18,5.23,5.23,0,0,0-2-.41,5.12,5.12,0,0,0-2,.41,5.52,5.52,0,0,0-1.7,1.17,5.1,5.1,0,0,0-1.52,3.69v6.31a.63.63,0,0,1-.18.42A.62.62,0,0,1,21.93,128.87Z"/><path class="cls-2" d="M89,35.48h0a89,89,0,0,0-89,89H0a5.56,5.56,0,0,0,11.12,0h0A77.84,77.84,0,0,1,89,46.61h0a5.56,5.56,0,0,0,0-11.12Z"/><path class="cls-2" d="M89,2.13h0A122,122,0,0,0,10.4,30.68h0a5.56,5.56,0,0,0-.69,7.83,5.62,5.62,0,0,0,7.83.7h0A110.75,110.75,0,0,1,89,13.25h0A5.56,5.56,0,0,0,89,2.13Z"/><path class="cls-3" d="M100.26,7.68a2,2,0,0,0,2.2,2h10.95a2,2,0,0,0,2.2-2h0a2,2,0,0,0-2.2-2H102.46a2,2,0,0,0-2.2,2Z"/><path class="cls-3" d="M107.94,15.36a2,2,0,0,0,2-2.2V2.2a2,2,0,0,0-2-2.2h0a2,2,0,0,0-2,2.2V13.15a2,2,0,0,0,2,2.2Z"/></g></g></svg>