<svg xmlns="http://www.w3.org/2000/svg" viewBox="0 0 37.35 42"><defs><style>.cls-1{fill:#fff;}.cls-2{fill:#ff2600;}</style></defs><title>logo_righttop</title><g id="图层_2" data-name="图层 2"><g id="图层_1-2" data-name="图层 1"><path class="cls-1" d="M28.74,11.46h0A28.74,28.74,0,0,0,0,40.2H0a1.8,1.8,0,0,0,3.59,0h0A25.15,25.15,0,0,1,28.74,15.06h0a1.8,1.8,0,0,0,0-3.59Z"/><path class="cls-1" d="M28.74.69h0A39.43,39.43,0,0,0,3.36,9.91h0a1.8,1.8,0,0,0-.22,2.53,1.82,1.82,0,0,0,2.53.22h0A35.79,35.79,0,0,1,28.74,4.28h0a1.8,1.8,0,0,0,0-3.59Z"/><path class="cls-2" d="M32.39,2.48a.65.65,0,0,0,.71.64h3.54a.65.65,0,0,0,.71-.64h0a.65.65,0,0,0-.71-.64H33.1a.65.65,0,0,0-.71.64Z"/><path class="cls-2" d="M34.87,5a.65.65,0,0,0,.64-.71V.71A.65.65,0,0,0,34.87,0h0a.65.65,0,0,0-.64.71V4.25a.65.65,0,0,0,.64.71Z"/></g></g></svg>