<svg xmlns="http://www.w3.org/2000/svg" viewBox="0 0 36 40.48"><defs><style>.cls-1{fill:#fff;}.cls-2{fill:#ff2600;}</style></defs><title>nav_logo</title><g id="图层_2" data-name="图层 2"><g id="图层_1-2" data-name="图层 1"><path class="cls-1" d="M27.7,11h0A27.7,27.7,0,0,0,0,38.75H0a1.73,1.73,0,0,0,3.46,0h0A24.24,24.24,0,0,1,27.7,14.51h0a1.73,1.73,0,0,0,0-3.46Z"/><path class="cls-1" d="M27.7.66h0A38,38,0,0,0,3.24,9.55h0A1.73,1.73,0,0,0,3,12a1.75,1.75,0,0,0,2.44.22h0A34.49,34.49,0,0,1,27.7,4.12h0a1.73,1.73,0,0,0,0-3.46Z"/><path class="cls-2" d="M31.22,2.39A.63.63,0,0,0,31.9,3h3.41A.63.63,0,0,0,36,2.39h0a.63.63,0,0,0-.69-.61H31.9a.63.63,0,0,0-.69.61Z"/><path class="cls-2" d="M33.61,4.78a.63.63,0,0,0,.61-.69V.69A.63.63,0,0,0,33.61,0h0A.63.63,0,0,0,33,.69V4.09a.63.63,0,0,0,.62.69Z"/></g></g></svg>