<svg xmlns="http://www.w3.org/2000/svg" viewBox="0 0 30.5 21.47"><defs><style>.cls-1{opacity:0.5;}.cls-2{fill:#fff;}</style></defs><title>nav_report_inactive_1</title><g id="图层_2" data-name="图层 2"><g id="图层_1-2" data-name="图层 1"><g class="cls-1"><circle class="cls-2" cx="14.18" cy="0.85" r="0.85"/><circle class="cls-2" cx="18.32" cy="1.43" r="0.85"/><circle class="cls-2" cx="22.08" cy="2.8" r="0.85"/><circle class="cls-2" cx="25.32" cy="4.97" r="0.85"/><circle class="cls-2" cx="29.65" cy="10.98" r="0.85"/><circle class="cls-2" cx="27.83" cy="7.76" r="0.85"/><path class="cls-2" d="M13.88,20a7.8,7.8,0,0,1-2-.26.5.5,0,1,1,.26-1A6.81,6.81,0,1,0,13.88,5.36a.5.5,0,0,1,0-1,7.81,7.81,0,1,1,0,15.61Z"/><path class="cls-2" d="M13.88,17.53a5.49,5.49,0,0,1-1-.09.5.5,0,1,1,.18-1,4.36,4.36,0,1,0,.82-8.64.5.5,0,0,1,0-1,5.36,5.36,0,0,1,0,10.72Z"/><path class="cls-2" d="M13.88,15a.5.5,0,0,1,0-1,1.82,1.82,0,0,0,0-3.64.5.5,0,0,1,0-1,2.82,2.82,0,0,1,0,5.64Z"/><path class="cls-2" d="M8.05,17.08a.5.5,0,0,1-.4-.2,7.73,7.73,0,0,1-1.58-4.71,7.82,7.82,0,0,1,7.77-7.81.59.59,0,0,1,.35.15.5.5,0,0,1,.15.35v7.33a.5.5,0,0,1-.2.4L8.36,17A.5.5,0,0,1,8.05,17.08ZM13.34,5.38a6.82,6.82,0,0,0-6.27,6.78,6.74,6.74,0,0,0,1.09,3.7l5.18-3.92Zm.5,6.81h0Z"/><path class="cls-2" d="M13.88,21.47A15.05,15.05,0,0,1,0,12.37.5.5,0,0,1,0,12a15.06,15.06,0,0,1,27.67,0,.5.5,0,0,1,0,.4A15.06,15.06,0,0,1,13.88,21.47ZM1,12.17a14.06,14.06,0,0,0,25.66,0A14.06,14.06,0,0,0,1,12.17Z"/></g></g></g></svg>