<svg xmlns="http://www.w3.org/2000/svg" viewBox="0 0 22.49 30.4"><defs><style>.cls-1,.cls-2{fill:none;stroke-linecap:round;stroke-linejoin:round;}.cls-1{stroke:#001cb9;opacity:0.6;}.cls-2{stroke:#fff;stroke-width:1.11px;}.cls-3{fill:#ff2600;}.cls-4{fill:#fff;}</style></defs><title>nav_payment_active</title><g id="图层_2" data-name="图层 2"><g id="图层_1-2" data-name="图层 1"><path class="cls-1" d="M9.75,20.81"/><path class="cls-2" d="M6.59,17.65"/><path class="cls-3" d="M9.75,21.31a3.66,3.66,0,0,1-3.65-3.65.5.5,0,0,1,1,0,2.66,2.66,0,0,0,2.65,2.65.5.5,0,0,1,0,1Z"/><path class="cls-4" d="M9.75,24.34a6.69,6.69,0,0,1-6.68-6.69.5.5,0,0,1,1,0,5.68,5.68,0,1,0,11.37,0,.5.5,0,0,1,1,0A6.69,6.69,0,0,1,9.75,24.34Z"/><path class="cls-3" d="M9.75,27.4a9.75,9.75,0,0,1-7-16.57.5.5,0,1,1,.71.7,8.75,8.75,0,1,0,15,6.13.5.5,0,0,1,1,0A9.76,9.76,0,0,1,9.75,27.4Z"/><path class="cls-4" d="M9.75,30.4a.5.5,0,0,1,0-1A11.76,11.76,0,0,0,21.49,17.65a.5.5,0,0,1,1,0A12.76,12.76,0,0,1,9.75,30.4Z"/><path class="cls-4" d="M15.44,17.79h1V15h.09a5.33,5.33,0,0,0,1.63-.42,3.61,3.61,0,0,0,1.43-1.25,3.16,3.16,0,0,0,.53-1.77,3.52,3.52,0,0,0-.72-2.14,9.65,9.65,0,0,0-2.91-2l-.05,0V2.65l.12,0A2.87,2.87,0,0,1,18.36,4a.52.52,0,0,0,.93-.32.52.52,0,0,0-.12-.34A4.69,4.69,0,0,0,18,2.14a3.94,3.94,0,0,0-1.47-.56l-.08,0V.5h0v0a.49.49,0,0,0-1,0v.1h0v.92h-.09a4.12,4.12,0,0,0-1.76.53,3.16,3.16,0,0,0-1.08,1.1,2.85,2.85,0,0,0-.39,1.46A2.82,2.82,0,0,0,12.49,6,3.6,3.6,0,0,0,13.6,7.18c.25.17.85.48,1.79.94l.06,0v5.77h-.11A4.54,4.54,0,0,1,12.07,12a.51.51,0,0,0-.89.34.52.52,0,0,0,.08.28,4.86,4.86,0,0,0,1,1.21,4.74,4.74,0,0,0,1.28.78,6.37,6.37,0,0,0,1.76.35h.09v2.82Zm1-4V8.52l.15.08A6.07,6.07,0,0,1,18.5,10a2.45,2.45,0,0,1,.52,1.5A2.07,2.07,0,0,1,18.34,13a3.11,3.11,0,0,1-1.8.82l-.11,0ZM15.3,6.89a4.53,4.53,0,0,1-1.65-1.14,1.76,1.76,0,0,1-.4-1.17,1.93,1.93,0,0,1,.95-1.68,2.67,2.67,0,0,1,1.14-.32h.11V7Z"/></g></g></svg>