<svg xmlns="http://www.w3.org/2000/svg" viewBox="0 0 25.54 29"><defs><style>.cls-1{opacity:0.5;}.cls-2{fill:#fff;}</style></defs><title>nav_order_inactive</title><g id="图层_2" data-name="图层 2"><g id="图层_1-2" data-name="图层 1"><g class="cls-1"><path class="cls-2" d="M13.41,28.17a.5.5,0,0,1-.48-.35A2.62,2.62,0,0,0,8,27.62a.5.5,0,0,1-.93-.38,3.62,3.62,0,0,1,6.81.28.5.5,0,0,1-.33.63Z"/><path class="cls-2" d="M4.8,26.73A.5.5,0,0,1,4.34,26a6.61,6.61,0,0,1,12.18,0,.5.5,0,0,1-.92.39,5.61,5.61,0,0,0-10.34,0A.5.5,0,0,1,4.8,26.73Z"/><path class="cls-2" d="M18.86,25.35a.5.5,0,0,1-.46-.3A8.73,8.73,0,0,0,2.45,25a.5.5,0,1,1-.91-.41,9.73,9.73,0,0,1,17.77,0,.5.5,0,0,1-.46.7Z"/><path class="cls-2" d="M11.54,16.89a.5.5,0,0,1-.49-.4l-.6-3a.5.5,0,0,1,.1-.41L21,.19a.5.5,0,0,1,.7-.07l3.65,3a.5.5,0,0,1,.07.7L15,16.67a.5.5,0,0,1-.38.19l-3,0Zm3-.54h0Zm-3.12-2.82L12,15.88l2.4,0,10-12.33L21.46,1.2Z"/><path class="cls-2" d="M13.06,15a.5.5,0,0,1-.39-.81l8.87-11a.5.5,0,0,1,.78.63l-8.87,11A.5.5,0,0,1,13.06,15Z"/><path class="cls-2" d="M20.12,29H.5a.5.5,0,0,1-.5-.5V5.44a.5.5,0,0,1,.5-.5H14.58a.5.5,0,0,1,0,1H1V28H19.62V12.29a.5.5,0,0,1,1,0V28.5A.5.5,0,0,1,20.12,29Z"/></g></g></g></svg>