<svg xmlns="http://www.w3.org/2000/svg" viewBox="0 0 42.88 50.6"><defs><style>.cls-1,.cls-2{fill:none;stroke-linecap:round;stroke-linejoin:round;stroke-width:1.92px;}.cls-1{stroke:#ff2600;}.cls-2{stroke:#001cb9;}</style></defs><title>report__travel</title><g id="图层_2" data-name="图层 2"><g id="图层_1-2" data-name="图层 1"><path class="cls-1" d="M5,32.41a17.73,17.73,0,1,1,8.73,5.78"/><path class="cls-2" d="M5.95,40.45A23.18,23.18,0,1,0,30.18,1L24.47,11s3,1.14,5.3,7.76-2.08-3-6.05-.76-3.31,3.31-5,3.08a10.25,10.25,0,0,1-3.55-1.56l-5.11,8.7,2.84,2.84L9.52,36.21l9.27-4.73L18,27.32s-4.35-3-5.49-5.11S7.82,15,7.82,15,13.5,11.43,9.33,6.7"/><line class="cls-2" x1="18.69" y1="44.16" x2="18.69" y2="49.45"/><line class="cls-2" x1="13.58" y1="49.64" x2="23.79" y2="49.64"/></g></g></svg>