<svg xmlns="http://www.w3.org/2000/svg" viewBox="0 0 40.96 48.95"><defs><style>.cls-1,.cls-2{fill:none;stroke-linecap:round;stroke-linejoin:round;}.cls-1{stroke:#ff2600;stroke-width:1.8px;}.cls-2{stroke:#001cb9;stroke-width:1.66px;}</style></defs><title>report_pregnacy</title><g id="图层_2" data-name="图层 2"><g id="图层_1-2" data-name="图层 1"><path class="cls-1" d="M17.33,15.07a11.53,11.53,0,0,1,11,20.29"/><path class="cls-1" d="M14.61,10a17.24,17.24,0,1,1,3.44,31.73"/><path class="cls-1" d="M20.23,19.83A5.82,5.82,0,1,1,22.61,31"/><circle class="cls-2" cx="8.2" cy="5.87" r="5.04"/><path class="cls-2" d="M19.51,26.59a6.5,6.5,0,0,0-5.44-6.41L10,13.38H5.21L.83,37.32,15,37l.29-3.79,0-.53A6.5,6.5,0,0,0,19.51,26.59Z"/><polyline class="cls-2" points="12.95 37.47 12.07 48.12 9.3 48.12 8.34 37.47"/><path class="cls-2" d="M15.94,25.71a1.53,1.53,0,0,0-1.54-1.53c-.19,0-2.72.78-3.84-.68A12.63,12.63,0,0,1,9,19.15a1.53,1.53,0,0,0-3.07,0,1.51,1.51,0,0,0,.05.38,15.52,15.52,0,0,0,1.6,5.29c2.29,3.79,6.81,2.43,6.81,2.43A1.53,1.53,0,0,0,15.94,25.71Z"/></g></g></svg>