<svg xmlns="http://www.w3.org/2000/svg" viewBox="0 0 43.05 38.6"><defs><style>.cls-1{fill:none;stroke:#ff2600;stroke-linecap:round;stroke-linejoin:round;stroke-width:1.8px;}.cls-2{fill:#001cb9;}</style></defs><title>report_color</title><g id="图层_2" data-name="图层 2"><g id="图层_1-2" data-name="图层 1"><path class="cls-1" d="M16.37,35.54a5.16,5.16,0,0,1,10.32,0"/><path class="cls-1" d="M11.42,35.54a10.11,10.11,0,0,1,20.22,0"/><path class="cls-1" d="M6.26,35.54a15.27,15.27,0,0,1,30.54,0"/><path class="cls-2" d="M27.81,5.18,27.6,5V3.14a1.42,1.42,0,0,0-1.4-1.4H16.85a1.42,1.42,0,0,0-1.4,1.4V5l-.21.21H13.92L13.71,5V3.14A3.14,3.14,0,0,1,16.85,0H26.2a3.14,3.14,0,0,1,3.14,3.14V5l-.21.21Z"/><path class="cls-2" d="M3.14,38.6A3.14,3.14,0,0,1,0,35.46V11.55A3.14,3.14,0,0,1,3.14,8.41H39.91a3.14,3.14,0,0,1,3.14,3.14v23.9a3.14,3.14,0,0,1-3.14,3.14Zm0-28.44a1.41,1.41,0,0,0-1.4,1.4v23.9a1.41,1.41,0,0,0,1.4,1.4H39.91a1.41,1.41,0,0,0,1.4-1.4V11.55a1.41,1.41,0,0,0-1.4-1.4Z"/></g></g></svg>