<svg xmlns="http://www.w3.org/2000/svg" viewBox="0 0 48.96 48.45"><defs><style>.cls-1,.cls-2{fill:none;stroke-linecap:round;stroke-linejoin:round;stroke-width:1.92px;}.cls-1{stroke:#001cb9;}.cls-2{stroke:#ff2600;}</style></defs><title>report_attitude</title><g id="图层_2" data-name="图层 2"><g id="图层_1-2" data-name="图层 1"><path class="cls-1" d="M1,23.77a5.89,5.89,0,0,1,5.89,5.89"/><path class="cls-1" d="M1.1,18.13A11.54,11.54,0,0,1,12.64,29.66"/><path class="cls-1" d="M1,12.23A17.43,17.43,0,0,1,18.39,29.66"/><path class="cls-2" d="M30.07,12.76"/><line class="cls-1" x1="30.14" y1="12.56" x2="30.14" y2="29.87"/><line class="cls-1" x1="41.68" y1="12.61" x2="41.68" y2="29.92"/><line class="cls-1" x1="35.71" y1="6.6" x2="35.71" y2="29.77"/><path class="cls-2" d="M35.78,30.06a11.54,11.54,0,1,1-23.08,0"/><path class="cls-2" d="M41.67,30.06a17.43,17.43,0,0,1-34.86,0"/><path class="cls-2" d="M30.13,30.06a5.89,5.89,0,1,1-11.78,0"/><polyline class="cls-1" points="23.12 13.35 35.51 0.96 48 13.45"/></g></g></svg>