<svg xmlns="http://www.w3.org/2000/svg" viewBox="0 0 50.32 48.86"><defs><style>.cls-1{fill:none;stroke:#ff2600;stroke-linecap:round;stroke-linejoin:round;stroke-width:1.8px;}.cls-2{fill:#001cb9;}</style></defs><title>report_art</title><g id="图层_2" data-name="图层 2"><g id="图层_1-2" data-name="图层 1"><path class="cls-1" d="M.9,37.13A24.91,24.91,0,0,0,27.08,47.32"/><path class="cls-1" d="M5.82,35a18.63,18.63,0,0,0,18.62,7.81"/><path class="cls-2" d="M22.57,39.58a18.07,18.07,0,0,1-6.81-1.33A18.31,18.31,0,0,1,5.7,14.59C7.44,10,10.56,9.46,11.82,9.46a5.31,5.31,0,0,1,4.81,2.87,2.67,2.67,0,0,0,2.52,1.72,3.61,3.61,0,0,0,1.4-.29c1.48-.63,1.37-2.42,1.3-3A6.19,6.19,0,0,1,23.2,6,4.86,4.86,0,0,1,27,4.3a7,7,0,0,1,2.64.55,18.14,18.14,0,0,1,5.25,3.24l0,.23q-.31.67-.56,1.31L34,9.69A16.29,16.29,0,0,0,29,6.46,5.39,5.39,0,0,0,27,6,3.16,3.16,0,0,0,24.51,7.1a4.44,4.44,0,0,0-.94,3.47,4.28,4.28,0,0,1-2.34,4.78,5.36,5.36,0,0,1-2.08.44A4.38,4.38,0,0,1,15,13a3.56,3.56,0,0,0-3.22-1.84c-1.93,0-3.53,1.42-4.5,4a16.58,16.58,0,0,0,9.08,21.44,16.43,16.43,0,0,0,10.81.53l.24.13a4.92,4.92,0,0,1,.24,1.41l-.14.19A18.31,18.31,0,0,1,22.57,39.58Z"/><path class="cls-2" d="M29.38,44.82a.72.72,0,0,1-.26-.05l-.21-.11a1,1,0,0,1-.25-.26,1,1,0,0,1-.1-.27l0-.21,0-.14,0-.11,0-.1.07-.11A7.34,7.34,0,0,0,30.1,37c-1.81-4.33,1-6.61,1.15-6.71l.09-.06a5.35,5.35,0,0,1,3.11-1.37l.53,0a5.59,5.59,0,0,1,3.53,1.24,5.92,5.92,0,0,1,2.19,4,5.43,5.43,0,0,1-1.27,4.06c-4.73,5.63-9.66,6.63-9.87,6.67h-.19ZM35,30.57l-.37,0a3.64,3.64,0,0,0-2.53,1.36l-.13.13-.07.08a4.21,4.21,0,0,0-.16,4.21,8.36,8.36,0,0,1-.06,5.11l-.28.88.82-.44A20.26,20.26,0,0,0,38.1,37,3.66,3.66,0,0,0,39,34.25a4.17,4.17,0,0,0-1.55-2.82A3.93,3.93,0,0,0,35,30.57Z"/><path class="cls-2" d="M14.71,29.62a1.64,1.64,0,0,1-.61-.12,1.63,1.63,0,1,1,.61.12Z"/><path class="cls-2" d="M22.46,33.52a1.63,1.63,0,1,1,1.51-1,1.62,1.62,0,0,1-1.51,1Z"/><path class="cls-2" d="M11.92,21.47a1.61,1.61,0,0,1-.61-.12,1.63,1.63,0,0,1,.61-3.14,1.63,1.63,0,0,1,1.51,2.24,1.62,1.62,0,0,1-1.51,1Z"/><path class="cls-2" d="M29.6,15.1a1.63,1.63,0,1,1,1.51-1,1.62,1.62,0,0,1-1.51,1Z"/><path class="cls-2" d="M42.27,28A.85.85,0,0,1,42,28l-2.39-.79-5.1-1.65a.87.87,0,0,1-.6-.73c0-.16-.38-4,2.19-11.84A38.14,38.14,0,0,1,42.91.29a.87.87,0,0,1,1.52.52.87.87,0,0,1-.22.63,38.05,38.05,0,0,0-6.46,12.06A51.62,51.62,0,0,0,36.25,19l-.07.34,7.59,2.4a.83.83,0,0,1,.21.1l.36.23.18-.39a49.06,49.06,0,0,0,2.06-5.3,37.66,37.66,0,0,0,2-13.54.87.87,0,0,1,.79-.94h0a.88.88,0,0,1,.94.79,38.56,38.56,0,0,1-2,14.24C45.65,24.82,43,27.64,42.9,27.75A.88.88,0,0,1,42.27,28Zm-2.11-2.48,1.83.59.16-.22a20.8,20.8,0,0,0,1.24-2l.23-.4-7.73-2.44-.06.45a21.1,21.1,0,0,0-.19,2.23V24Z"/></g></g></svg>