<svg xmlns="http://www.w3.org/2000/svg" viewBox="0 0 49.06 49.06"><defs><style>.cls-1{fill:#001cb9;}.cls-2{fill:none;stroke:#ff2600;stroke-linecap:round;stroke-linejoin:round;stroke-width:1.8px;}</style></defs><title>report_sports</title><g id="图层_2" data-name="图层 2"><g id="图层_1-2" data-name="图层 1"><path class="cls-1" d="M24.53,45A20.43,20.43,0,1,1,45,24.53,20.46,20.46,0,0,1,24.53,45Zm-13-7a18.69,18.69,0,0,0,19.52,4.09l.37-.14-.15-.36c-3.26-7.64,1-12.78,1.18-13s.51-.58.77-.84l.2-.21-.15-.25a30.62,30.62,0,0,0-2.4-3.33l-.28-.34-.29.32c-4.39,4.9-10.68,9.42-18.68,13.45l-.47.24Zm22.4-8.47-.17.18c-.15.18-3.7,4.58-.93,11.15l.16.38.36-.19a18.72,18.72,0,0,0,3.81-2.71l.15-.14,0-.2a30.27,30.27,0,0,0-2.73-8.39l-.25-.5Zm1.85-1.33a31.57,31.57,0,0,1,2.84,7.69l.17.77.48-.62a18.63,18.63,0,0,0,3.86-9.67l0-.35-.35-.05a9.18,9.18,0,0,0-1.31-.09A9.55,9.55,0,0,0,35.9,27.7l-.26.19ZM6,21.68a18.91,18.91,0,0,0-.22,2.85A18.48,18.48,0,0,0,9.79,36l.19.24.27-.13C33.94,24.41,35.39,11.93,35.44,9.55v-.2l-.16-.11a18.71,18.71,0,0,0-7.85-3.18L26.88,6,27,6.5a15,15,0,0,1-1.12,10l-.14.28.25.19c.83.62,1.59,1.23,2.33,1.88l0,.26c-.28.38-.56.75-.83,1.08l-.28,0c-.67-.59-1.39-1.18-2.2-1.79l-.27-.21-.23.25A14.24,14.24,0,0,1,14,23.32,16.88,16.88,0,0,1,6.57,21.4l-.46-.23Zm25.88.79A32.3,32.3,0,0,1,34.54,26l.21.33.32-.22a11,11,0,0,1,6.39-2,11.66,11.66,0,0,1,1.34.08l.44.05,0-.44a18.61,18.61,0,0,0-5.6-12.62l-.51-.5-.12.71A23.83,23.83,0,0,1,31.91,22l-.19.24ZM6.8,19.58a15.74,15.74,0,0,0,7.34,2,12.06,12.06,0,0,0,9-4.09l.34-.38v0a10.67,10.67,0,0,0,1.05-1.69,13.59,13.59,0,0,0,.63-9.32L25,5.84h-.51A18.51,18.51,0,0,0,13.13,9.71l-.56.43.67.22a46.68,46.68,0,0,1,8.46,3.76l.07.26A7.16,7.16,0,0,1,21,15.53l-.24,0a42.85,42.85,0,0,0-9.45-4l-.22-.06-.16.16a18.82,18.82,0,0,0-4.33,7.45l-.09.29Z"/><path class="cls-2" d="M24.53,48.16A23.63,23.63,0,0,1,.9,24.53"/><path class="cls-2" d="M24.53.9A23.63,23.63,0,0,1,48.16,24.53"/></g></g></svg>