<svg xmlns="http://www.w3.org/2000/svg" viewBox="0 0 40.01 42.68"><defs><style>.cls-1{fill:none;stroke:#ff2600;stroke-linecap:round;stroke-linejoin:round;stroke-width:1.8px;}.cls-2{fill:#001cb9;}</style></defs><title>report_relationship</title><g id="图层_2" data-name="图层 2"><g id="图层_1-2" data-name="图层 1"><path class="cls-1" d="M27.56,32.3a14.47,14.47,0,0,1-15.24-.08"/><path class="cls-1" d="M26,6.82A14.47,14.47,0,0,1,33.88,24"/><path class="cls-1" d="M6.1,23.93A14.48,14.48,0,0,1,14,6.82"/><path class="cls-1" d="M1.34,23.91a19.07,19.07,0,1,1,37.34-.1"/><path class="cls-2" d="M26.37,20.19,26.16,20l0-2.15a2.5,2.5,0,0,0-2.49-2.5H16.39a2.5,2.5,0,0,0-2.5,2.5v2.06l-.16.21-1.31,0L12.2,20l0-2.15a4.23,4.23,0,0,1,4.23-4.23h7.23a4.23,4.23,0,0,1,4.22,4.23v2.06l-.16.21-.09,0Z"/><path class="cls-2" d="M14.21,42.68,14,42.52l0-2.41a2.5,2.5,0,0,0-2.49-2.5H4.23a2.5,2.5,0,0,0-2.5,2.5v2.31l-.16.21-1.31,0L0,42.52l0-2.41a4.23,4.23,0,0,1,4.23-4.23h7.23a4.23,4.23,0,0,1,4.22,4.23v2.31l-.16.21-.09,0Z"/><path class="cls-2" d="M24.47,30.3a.86.86,0,0,1-.45-.13l-3.78-2.62a.43.43,0,0,0-.23-.07.43.43,0,0,0-.23.06L16,30.17a.83.83,0,0,1-.44.13.87.87,0,0,1-.73-.39.85.85,0,0,1,.27-1.17l3.85-2.66a.43.43,0,0,0,.2-.36V21.17a.85.85,0,0,1,1.7,0v4.5A.42.42,0,0,0,21,26l3.89,2.69a.83.83,0,0,1,.38.54.85.85,0,0,1-.11.64A.84.84,0,0,1,24.47,30.3Z"/><path class="cls-2" d="M38.54,42.68l-.21-.16,0-2.41a2.5,2.5,0,0,0-2.5-2.5H28.55a2.5,2.5,0,0,0-2.5,2.5v2.31l-.16.21-1.31,0-.22-.16,0-2.41a4.23,4.23,0,0,1,4.23-4.23h7.23A4.23,4.23,0,0,1,40,40.11v2.31l-.16.21-.09,0Z"/><path class="cls-2" d="M19.91,11.23a4.37,4.37,0,1,1,4.37-4.37A4.38,4.38,0,0,1,19.91,11.23Zm0-7a2.64,2.64,0,1,0,2.64,2.64A2.65,2.65,0,0,0,19.91,4.21Z"/><path class="cls-2" d="M32.07,33.46a4.37,4.37,0,1,1,4.37-4.37A4.38,4.38,0,0,1,32.07,33.46Zm0-7a2.64,2.64,0,1,0,2.64,2.64A2.65,2.65,0,0,0,32.07,26.45Z"/><path class="cls-2" d="M7.74,33.46a4.37,4.37,0,1,1,4.37-4.37A4.38,4.38,0,0,1,7.74,33.46Zm0-7a2.64,2.64,0,1,0,2.64,2.64A2.65,2.65,0,0,0,7.74,26.45Z"/></g></g></svg>