<svg xmlns="http://www.w3.org/2000/svg" viewBox="0 0 40.6 54.12"><defs><style>.cls-1,.cls-2,.cls-3{fill:none;stroke-linecap:round;stroke-linejoin:round;stroke-width:1.92px;}.cls-1,.cls-3{stroke:#001cb9;}.cls-2{stroke:#ff2600;}.cls-3{opacity:0.6;}</style></defs><title>report_studies</title><g id="图层_2" data-name="图层 2"><g id="图层_1-2" data-name="图层 1"><circle class="cls-1" cx="25.82" cy="6.61" r="3.13"/><line class="cls-1" x1="25.82" y1="0.96" x2="25.82" y2="3.61"/><polyline class="cls-1" points="17.61 31.15 26.09 10.11 34.03 31.15"/><line class="cls-1" x1="16.95" y1="23.33" x2="23.56" y2="23.33"/><line class="cls-1" x1="28.08" y1="23.33" x2="34.69" y2="23.33"/><path class="cls-2" d="M17.6,36.8a5.67,5.67,0,0,1-5.67-5.68"/><path class="cls-3" d="M17.6,36.8"/><path class="cls-2" d="M11.92,31.12"/><path class="cls-2" d="M28.73,31.12a11.13,11.13,0,1,1-22.26,0"/><path class="cls-2" d="M34.24,31.12A16.64,16.64,0,1,1,5.72,19.47"/><path class="cls-1" d="M39.63,31.12a22,22,0,0,1-22,22"/></g></g></svg>