<svg xmlns="http://www.w3.org/2000/svg" viewBox="0 0 48.67 46.87"><defs><style>.cls-1{fill:none;stroke:#ff2600;stroke-linecap:round;stroke-linejoin:round;stroke-width:1.8px;}.cls-2{fill:#001cb9;}</style></defs><title>report_risk</title><g id="图层_2" data-name="图层 2"><g id="图层_1-2" data-name="图层 1"><path class="cls-1" d="M34.19,17.31A5.72,5.72,0,0,1,33.11,27"/><path class="cls-1" d="M41.18,8.33a17.1,17.1,0,0,1-3.65,29.16"/><path class="cls-1" d="M37.6,12.92a11.28,11.28,0,0,1-2.68,19.35"/><path class="cls-2" d="M18.12,20.91l-1.05,0a.88.88,0,0,1,0-1.77l1.05,0c4,0,5.67-1.37,6.28-2.18l.16-.21-.14-.23c-2.27-3.63-8.1-5.85-9.83-6.44L14.45,10l-.16.1A32.68,32.68,0,0,0,10,14.22a.87.87,0,0,1-.65.29.88.88,0,0,1-.88-.84A.87.87,0,0,1,8.67,13c2.58-2.84,4.61-4.59,5.58-4.81l.18,0,.27.06a31,31,0,0,1,4.94,2.07l.22.12.2-.15A19.28,19.28,0,0,0,24,6.61L24,6.5V6.38a14,14,0,0,0-1.81-5.07.89.89,0,0,1,.35-1.2A.9.9,0,0,1,23,0a.88.88,0,0,1,.77.46c1.1,2,2.28,4.94,2,6.54l0,.13-.09.17a17,17,0,0,1-3.7,3.77l-.41.33.44.3a14.83,14.83,0,0,1,3.46,3.12l.27.35.31-.31a12.65,12.65,0,0,1,8.32-3.29.9.9,0,0,1,.64.27.88.88,0,0,1,.25.63.89.89,0,0,1-.88.87c-.21,0-5.3,0-8,3.81C25.93,18.08,24.17,20.91,18.12,20.91Z"/><path class="cls-2" d="M29.38,24.23a2.2,2.2,0,1,1,1.8-.93,2.2,2.2,0,0,1-1.8.93Z"/><path class="cls-2" d="M34.14,46.87l-.19-.19V38.46a1.3,1.3,0,0,0-1.3-1.3h-2.9a1.3,1.3,0,0,0-1.3,1.3v8.22l-.19.19H26.87l-.19-.19V38.46a3.07,3.07,0,0,1,3.07-3.06h2.9a3.07,3.07,0,0,1,3.07,3.06v8.22l-.19.19Z"/><path class="cls-2" d="M20.8,46.87l-.19-.19V30.39a1.3,1.3,0,0,0-1.3-1.3H16.42a1.3,1.3,0,0,0-1.3,1.3V46.68l-.19.19H13.55l-.19-.19V30.39a3.07,3.07,0,0,1,3.06-3.07h2.89a3.07,3.07,0,0,1,3.07,3.07V46.68l-.19.19Z"/><path class="cls-2" d="M7.44,46.87l-.19-.19V19.09A1.3,1.3,0,0,0,6,17.79H3.07a1.3,1.3,0,0,0-1.3,1.3V46.68l-.19.19H.19L0,46.68V19.09A3.07,3.07,0,0,1,3.07,16H6A3.07,3.07,0,0,1,9,19.09V46.68l-.19.19Z"/></g></g></svg>