<svg xmlns="http://www.w3.org/2000/svg" viewBox="0 0 48.59 47.71"><defs><style>.cls-1,.cls-2{fill:none;stroke-linecap:round;stroke-linejoin:round;stroke-width:1.92px;}.cls-1{stroke:#ff2600;}.cls-2{stroke:#001cb9;}</style></defs><title>report_phone</title><g id="图层_2" data-name="图层 2"><g id="图层_1-2" data-name="图层 1"><path class="cls-1" d="M13,20.9a19.3,19.3,0,0,1,22.77.34"/><path class="cls-1" d="M12.9,29.68a13.25,13.25,0,0,1,22.94.65"/><path class="cls-1" d="M17.22,34.68a7.24,7.24,0,0,1,7-5.28"/><path class="cls-2" d="M36.16,42.34a4.3,4.3,0,0,1-4.2,4.4H16.56a4.3,4.3,0,0,1-4.2-4.4v-37A4.3,4.3,0,0,1,16.56,1H32a4.3,4.3,0,0,1,4.2,4.4Z"/><line class="cls-2" x1="36.05" y1="6.38" x2="6.67" y2="6.38"/><line class="cls-2" x1="42.22" y1="35.3" x2="12.4" y2="35.3"/><polyline class="cls-2" points="6.07 11.36 0.96 6.24 6.07 1.13"/><polyline class="cls-2" points="42.52 30.41 47.63 35.52 42.52 40.63"/></g></g></svg>