<svg xmlns="http://www.w3.org/2000/svg" viewBox="0 0 119.76 39.74"><defs><style>.cls-1{fill:#231815;}.cls-2{fill:#001cb9;}.cls-3{fill:#ff2600;}</style></defs><title>report_logo</title><g id="图层_2" data-name="图层 2"><g id="图层_1-2" data-name="图层 1"><path class="cls-1" d="M89.79,37.39a.87.87,0,0,1,.87.86.85.85,0,0,1-.87.86H86.73a4.56,4.56,0,0,1-4.55-4.55V16.93a.85.85,0,0,1,.86-.87.87.87,0,0,1,.86.87v7.18h5.85a.85.85,0,1,1,0,1.7H83.91v8.76a2.83,2.83,0,0,0,2.82,2.82Z"/><path class="cls-1" d="M111.49,16.93a.85.85,0,0,1,.86-.87.87.87,0,0,1,.86.87V34.57A2.83,2.83,0,0,0,116,37.39h2.85a.86.86,0,1,1,0,1.73H116a4.56,4.56,0,0,1-4.55-4.55Z"/><path class="cls-1" d="M61.34,39.31a.72.72,0,0,1-.8-.8V36a8.81,8.81,0,0,1-2.65,2.27,8.56,8.56,0,0,1-7.35.37,8.38,8.38,0,0,1-4.46-4.44,8.48,8.48,0,0,1,0-6.55A8.32,8.32,0,0,1,47.87,25a8.62,8.62,0,0,1,2.67-1.77,8.44,8.44,0,0,1,6.53,0A8.94,8.94,0,0,1,59.74,25a8.15,8.15,0,0,1,2.47,5.91v7.58C62.21,39,61.9,39.31,61.34,39.31Zm-7.54-15a6.71,6.71,0,0,0-2.57.5,6.48,6.48,0,0,0-2.12,1.41,7,7,0,0,0-1.44,2.12,6.39,6.39,0,0,0-.54,2.61,6.55,6.55,0,0,0,.54,2.61,7.31,7.31,0,0,0,1.45,2.2,6.71,6.71,0,0,0,2.12,1.42,6.72,6.72,0,0,0,5.2,0,6.79,6.79,0,0,0,2.11-1.43A7,7,0,0,0,60,33.54a6.57,6.57,0,0,0,.54-2.61A6.41,6.41,0,0,0,60,28.33a6.75,6.75,0,0,0-1.48-2.12,6.55,6.55,0,0,0-2.11-1.41A6.76,6.76,0,0,0,53.79,24.3Z"/><path class="cls-1" d="M73.2,39.31A8.07,8.07,0,0,1,70,38.65a8.64,8.64,0,0,1-2.65-1.77,8.28,8.28,0,0,1-1.79-2.63A8.17,8.17,0,0,1,64.86,31a8.05,8.05,0,0,1,.66-3.26,8.56,8.56,0,0,1,1.79-2.63,8.29,8.29,0,0,1,5.89-2.42,8.41,8.41,0,0,1,3.25.64,7.8,7.8,0,0,1,2.64,1.78.84.84,0,0,1,0,1.16,1,1,0,0,1-.63.23.81.81,0,0,1-.6-.23,6.38,6.38,0,0,0-2.07-1.43,6.46,6.46,0,0,0-2.59-.52,6.58,6.58,0,0,0-2.61.52,7.15,7.15,0,0,0-2.16,1.43A6.88,6.88,0,0,0,67,28.4a6.69,6.69,0,0,0-.5,2.57,6.82,6.82,0,0,0,.5,2.59,6.42,6.42,0,0,0,1.41,2.14,7.17,7.17,0,0,0,2.16,1.43,6.57,6.57,0,0,0,2.61.52,6.39,6.39,0,0,0,2.55-.5,6.54,6.54,0,0,0,2-1.37.93.93,0,0,1,1.23,0,.93.93,0,0,1,.23.62.68.68,0,0,1-.25.56,8.59,8.59,0,0,1-2.62,1.74A8.08,8.08,0,0,1,73.2,39.31Z"/><path class="cls-1" d="M108.12,39.31a.72.72,0,0,1-.79-.8V36a8.81,8.81,0,0,1-2.65,2.27,8.57,8.57,0,0,1-7.35.37,8.39,8.39,0,0,1-4.46-4.44,8.48,8.48,0,0,1,0-6.55A8.3,8.3,0,0,1,94.66,25a8.66,8.66,0,0,1,2.67-1.77,8.43,8.43,0,0,1,6.53,0A8.92,8.92,0,0,1,106.52,25,8.15,8.15,0,0,1,109,30.93v7.58C109,38.81,108.88,39.31,108.12,39.31Zm-7.54-15a6.69,6.69,0,0,0-2.57.5,6.46,6.46,0,0,0-2.12,1.41,7,7,0,0,0-1.44,2.12,6.4,6.4,0,0,0-.54,2.61,6.56,6.56,0,0,0,.54,2.61,7.35,7.35,0,0,0,1.45,2.2A6.72,6.72,0,0,0,98,37.16a6.72,6.72,0,0,0,5.19,0,6.79,6.79,0,0,0,2.11-1.43,7,7,0,0,0,1.48-2.19,6.55,6.55,0,0,0,.54-2.61,6.4,6.4,0,0,0-.54-2.61,6.71,6.71,0,0,0-1.48-2.12,6.54,6.54,0,0,0-2.11-1.41A6.76,6.76,0,0,0,100.58,24.3Z"/><path class="cls-1" d="M30,39.31a.76.76,0,0,1-.59-.25.77.77,0,0,1-.22-.52V30.72a7.51,7.51,0,0,1,1.28-4.38,8.16,8.16,0,0,1,2.87-2.74,7.86,7.86,0,0,1,4-1,8,8,0,0,1,5.76,2.37.9.9,0,0,1,.31.66.82.82,0,0,1-.32.58.93.93,0,0,1-1.1,0,6.35,6.35,0,0,0-2.11-1.46,6.47,6.47,0,0,0-2.53-.5,6.32,6.32,0,0,0-2.53.5,6.82,6.82,0,0,0-2.1,1.44,6.29,6.29,0,0,0-1.88,4.56v7.8a.77.77,0,0,1-.22.52A.76.76,0,0,1,30,39.31Z"/><path class="cls-2" d="M27.2,10.85h0A27.2,27.2,0,0,0,0,38H0a1.7,1.7,0,0,0,3.4,0h0a23.8,23.8,0,0,1,23.8-23.8h0a1.7,1.7,0,1,0,0-3.4Z"/><path class="cls-2" d="M27.2.65h0a37.3,37.3,0,0,0-24,8.73h0A1.7,1.7,0,0,0,3,11.77,1.72,1.72,0,0,0,5.37,12h0A33.85,33.85,0,0,1,27.19,4h0a1.7,1.7,0,0,0,0-3.4Z"/><path class="cls-3" d="M30.65,2.35a.62.62,0,0,0,.67.6h3.35a.62.62,0,0,0,.67-.6h0a.62.62,0,0,0-.67-.6H31.32a.62.62,0,0,0-.67.6Z"/><path class="cls-3" d="M33,4.69A.62.62,0,0,0,33.6,4V.67A.62.62,0,0,0,33,0h0a.62.62,0,0,0-.6.67V4a.62.62,0,0,0,.6.67Z"/></g></g></svg>