<svg xmlns="http://www.w3.org/2000/svg" viewBox="0 0 52.93 52"><defs><style>.cls-1{fill:#fff;stroke:#001cb9;}.cls-1,.cls-2{stroke-linecap:round;stroke-linejoin:round;stroke-width:1.8px;}.cls-2{fill:none;stroke:#ff2600;}</style></defs><title>report_ablility</title><g id="图层_2" data-name="图层 2"><g id="图层_1-2" data-name="图层 1"><circle class="cls-1" cx="26.13" cy="25.76" r="11.99"/><path class="cls-1" d="M9.08,20.53A17.87,17.87,0,0,1,20.69,8.77l.3-.09"/><path class="cls-1" d="M21.08,42.87A17.87,17.87,0,0,1,9,30.78"/><path class="cls-1" d="M43.24,30.81a17.88,17.88,0,0,1-11.81,12"/><path class="cls-2" d="M31.32,8.69A17.88,17.88,0,0,1,43.17,20.46"/><circle class="cls-1" cx="26.13" cy="25.76" r="6.06"/><line class="cls-1" x1="26.04" y1="13.68" x2="26.04" y2="0.9"/><line class="cls-1" x1="14.27" y1="25.63" x2="0.9" y2="25.63"/><line class="cls-1" x1="38.33" y1="25.96" x2="52.03" y2="25.96"/><line class="cls-1" x1="26.21" y1="37.91" x2="26.21" y2="51.1"/></g></g></svg>