<svg xmlns="http://www.w3.org/2000/svg" viewBox="0 0 51.98 51.77"><defs><style>.cls-1{fill:#001cb9;}.cls-2{fill:none;stroke:#ff2600;stroke-linecap:round;stroke-linejoin:round;stroke-width:1.8px;}</style></defs><title>report_food</title><g id="图层_2" data-name="图层 2"><g id="图层_1-2" data-name="图层 1"><path class="cls-1" d="M26.26,51.77a.8.8,0,1,1,0-1.6H33v-13L18.2,18.82a.8.8,0,0,1,.62-1.3l19.59,0,3.44-8.27a.8.8,0,0,1,.74-.49l.17,0,8.59,1.81a.8.8,0,0,1,.5.34.82.82,0,0,1,.11.6.81.81,0,0,1-.79.64l-.17,0L43.07,10.5l-2.93,7,8.64,0a.8.8,0,0,1,.62,1.3L34.59,37.2v13h6.73a.8.8,0,0,1,0,1.6ZM33.8,35.62,43,24.23H37.36l-2.84,6.84a.8.8,0,0,1-1.05.43.79.79,0,0,1-.43-.43.8.8,0,0,1,0-.61l4.71-11.31-17.24,0,2.83,3.51h9.91l.18.27-.52,1.22-.18.12h-8.1Zm10.48-13,2.83-3.51-7.64,0L38,22.63Z"/><path class="cls-1" d="M17.58,25.33a7.81,7.81,0,1,1,7.25-10.69l.09.22-.18.26H23.43L23.25,15l0-.09a6.43,6.43,0,0,0-.6-1l-.11-.15L20,16.25l-.29,0-.11-.15a2.43,2.43,0,0,0-.55-.55l-.15-.11,0-.29,2.53-2.51-.15-.11a6.06,6.06,0,0,0-3.56-1.19h-.19L18,14.83l-.19.22h-.28a2.31,2.31,0,0,0-.4,0l-.29.07-.17.05-.25-.15-.55-3.52-.18.06a6.14,6.14,0,0,0-3,2l-.12.15,3.12,1.76.05.29-.12.15a2.45,2.45,0,0,0-.39.68l-.07.17-.27.1-3.11-1.75-.07.18a6.15,6.15,0,0,0-.19,3.81l0,.18,3.25-1.46.26.12,0,.18a2.4,2.4,0,0,0,.33.71l.11.16-.08.28-3.25,1.46.1.16A6.2,6.2,0,0,0,15,23.16l.17.08,1-3.44.26-.12.17.08a2.44,2.44,0,0,0,.75.21l.18,0,.16.24-1,3.44.19,0a6.53,6.53,0,0,0,.7,0,6.13,6.13,0,0,0,1.16-.11l.28,0,.85,1-.1.31-.24.06A7.91,7.91,0,0,1,17.58,25.33Z"/><path class="cls-2" d="M22.67,27.9a11.63,11.63,0,1,1,6-13.52"/><path class="cls-2" d="M.9,17.49A16.59,16.59,0,0,1,17.49.9"/></g></g></svg>