<svg xmlns="http://www.w3.org/2000/svg" viewBox="0 0 42.18 47.49"><defs><style>.cls-1{fill:#001cb9;}.cls-2{fill:none;stroke:#ff2600;stroke-linecap:round;stroke-linejoin:round;stroke-width:1.8px;}</style></defs><title>report_sleep</title><g id="图层_2" data-name="图层 2"><g id="图层_1-2" data-name="图层 1"><path class="cls-1" d="M40.77,47.49l-.19-.19V44H1.6v3.25l-.19.19H.19L0,47.29V36.1a4,4,0,0,1,4-4H38.18a4,4,0,0,1,4,4V47.29l-.19.19Zm-.19-5.06V36.1a2.4,2.4,0,0,0-2.4-2.4H4a2.4,2.4,0,0,0-2.4,2.4v6.32Z"/><path class="cls-1" d="M39.53,29.72a6.64,6.64,0,0,0-1.18-.17l-.18-.19V23.08a3.68,3.68,0,0,0-3.68-3.68H7.71A3.69,3.69,0,0,0,4,23.08v6.28l-.18.19a6.84,6.84,0,0,0-1.18.17l-.24-.19V23.08A5.29,5.29,0,0,1,7.71,17.8H34.48a5.29,5.29,0,0,1,5.28,5.28v6.46Z"/><path class="cls-1" d="M18.07,29.54l-.19-.19v-4a1.13,1.13,0,0,0-1.12-1.12h-6a1.13,1.13,0,0,0-1.12,1.12v4l-.19.19H8.2L8,29.35v-4a2.72,2.72,0,0,1,2.72-2.72h6a2.72,2.72,0,0,1,2.72,2.72v4l-.19.19Z"/><path class="cls-1" d="M32.77,29.54l-.19-.19v-4a1.13,1.13,0,0,0-1.12-1.12h-6a1.13,1.13,0,0,0-1.12,1.12v4l-.19.19H22.9l-.19-.19v-4a2.72,2.72,0,0,1,2.72-2.72h6a2.72,2.72,0,0,1,2.72,2.72v4l-.19.19Z"/><path class="cls-2" d="M15.93,16.17a5.16,5.16,0,1,1,10.32,0"/><path class="cls-2" d="M11,16.17a10.11,10.11,0,0,1,20.22,0"/><path class="cls-2" d="M5.82,16.17a15.27,15.27,0,0,1,30.54,0"/></g></g></svg>