<svg xmlns="http://www.w3.org/2000/svg" viewBox="0 0 42.62 46.04"><defs><style>.cls-1{fill:#001cb9;}.cls-2{fill:none;stroke:#ff2600;stroke-linecap:round;stroke-linejoin:round;stroke-width:1.8px;}</style></defs><title>report_music</title><g id="图层_2" data-name="图层 2"><g id="图层_1-2" data-name="图层 1"><path class="cls-1" d="M7.95,46A8,8,0,1,1,9.81,30.36l.15.19v1.68l-.25.18a5.83,5.83,0,0,0-1.76-.27,6,6,0,1,0,5.92,6.17L13.89,5a1,1,0,0,1,.73-1A1.41,1.41,0,0,1,15,3.9L41.29.06A1.27,1.27,0,0,1,41.61,0a1,1,0,0,1,1,1V33a8,8,0,1,1-6.12-7.73l.15.19v1.67l-.25.18a5.9,5.9,0,0,0-1.73-.26A6,6,0,1,0,40.62,33V11.15L15.9,14.74l0,23.65A7.89,7.89,0,0,1,7.95,46Zm7.95-33.32L40.61,9.13V2.19L15.89,5.78Z"/><circle class="cls-2" cx="8" cy="38.06" r="3.04"/><circle class="cls-2" cx="34.69" cy="33.13" r="3.04"/><path class="cls-2" d="M34.64,43.61A10.67,10.67,0,0,1,24,32.95"/></g></g></svg>