<svg xmlns="http://www.w3.org/2000/svg" viewBox="0 0 45.05 45.99"><defs><style>.cls-1,.cls-2,.cls-3{fill:none;stroke-linecap:round;stroke-linejoin:round;}.cls-1,.cls-2{stroke:#ff2600;}.cls-1,.cls-3{stroke-width:1.66px;}.cls-2{stroke-width:1.8px;}.cls-3{stroke:#001cb9;}</style></defs><title>report_beauty</title><g id="图层_2" data-name="图层 2"><g id="图层_1-2" data-name="图层 1"><path class="cls-1" d="M6.84,23"/><path class="cls-2" d="M21.36,38.64A15.68,15.68,0,0,1,7.24,26.56"/><path class="cls-2" d="M38,25.82a15.69,15.69,0,0,1-6.8,10.27"/><path class="cls-2" d="M22.53,44.62A21.62,21.62,0,0,1,8,7"/><path class="cls-2" d="M36.92,6.86a21.63,21.63,0,0,1-5.86,36"/><circle class="cls-3" cx="14.14" cy="4.93" r="4.1"/><polyline class="cls-3" points="13.44 13.22 5.82 21.87 7.35 23.77 13.79 17.77"/><path class="cls-3" d="M32.77,5,31.6,3.26,17.24,10.88A7.31,7.31,0,0,0,17,18.21c2.93,5.57,13.18,7.91,13.18,7.91L37.46,22s2-2,1.76-3.52c-.59-3.51-5.27-12-5.27-12"/><polyline class="cls-3" points="24.1 26.82 23.39 33.15 26.03 45.16 28.08 44.28 27.79 31.68 30.13 26.12"/><path class="cls-3" d="M31.21,6.78l-8.79,5.08s0,4.49,1.56,5.27,2.54-.19,3.9.2,1.56,1.76,2.34,1.76,3.52-1.56,3.52-1.56A18.72,18.72,0,0,0,32,10.1"/></g></g></svg>