<svg xmlns="http://www.w3.org/2000/svg" viewBox="0 0 49.27 48.35"><defs><style>.cls-1{fill:#001cb9;}.cls-2{fill:none;stroke:#ff2600;stroke-linecap:round;stroke-linejoin:round;stroke-width:1.8px;}</style></defs><title>report_values</title><g id="图层_2" data-name="图层 2"><g id="图层_1-2" data-name="图层 1"><circle class="cls-1" cx="24.63" cy="1.38" r="1.38"/><path class="cls-1" d="M23.66,33.73V8.19H23.2A37.62,37.62,0,0,0,9.75,10.82L9.26,11,9,11.12l-.54.19.42.61C12.35,17,16.08,23.3,16.08,25.59c0,3.39-3.53,6.05-8,6.05S0,29,0,25.59c0-2.23,3.61-8.35,7-13.33l.5-.74-1,.06H6.21A4.82,4.82,0,0,1,1.58,8.77a1,1,0,0,1,.53-1.32.93.93,0,0,1,.36-.07,1,1,0,0,1,.91.6l0,.15a2.82,2.82,0,0,0,2.79,1.5,7.42,7.42,0,0,0,2.26-.4c3.85-1.78,9.43-2.88,15.28-3h1l1,0h0c5.78.14,11.26,1.23,15.08,3A7.43,7.43,0,0,0,43,9.63a2.81,2.81,0,0,0,2.79-1.48L45.89,8a1,1,0,0,1,.91-.59.91.91,0,0,1,.36.07,1.05,1.05,0,0,1,.52,1.32,4.81,4.81,0,0,1-4.63,2.83h-.28l-1-.06.5.74c3.38,5,7,11.1,7,13.33,0,3.39-3.53,6.05-8,6.05s-8-2.66-8-6.05c0-2.28,3.74-8.56,7.23-13.67l.42-.61-.55-.19L40,11l-.48-.19A37.6,37.6,0,0,0,26.06,8.2h-.45V33.73Zm11.52-8.47a2,2,0,0,0,0,.32c0,2.26,2.73,4.1,6.09,4.1s6.09-1.84,6.09-4.1a1.93,1.93,0,0,0,0-.32l-.06-.37h-12ZM2,25.27a2.11,2.11,0,0,0,0,.32c0,2.26,2.73,4.1,6.09,4.1s6.09-1.84,6.09-4.1a2,2,0,0,0,0-.32L14,24.9H2ZM46.41,23l-.33-.64a87.15,87.15,0,0,0-4.48-7.55l-.37-.56-.37.56a87.1,87.1,0,0,0-4.48,7.55l-.33.64ZM13.22,23l-.33-.64a87.69,87.69,0,0,0-4.48-7.55L8,14.2l-.37.56a86.93,86.93,0,0,0-4.48,7.55L2.86,23Z"/><path class="cls-2" d="M43.27,46.79a19.93,19.93,0,0,0-37.14,0"/><path class="cls-2" d="M38.27,47.43a14.89,14.89,0,0,0-27.14,0"/></g></g></svg>