<svg xmlns="http://www.w3.org/2000/svg" viewBox="0 0 47.65 38.92"><defs><style>.cls-1{fill:#001cb9;}.cls-2,.cls-3{fill:none;stroke-linecap:round;stroke-linejoin:round;}.cls-2{stroke:#ff2600;stroke-width:1.8px;}.cls-3{stroke:#001cb9;stroke-width:1.92px;}</style></defs><title>report_health</title><g id="图层_2" data-name="图层 2"><g id="图层_1-2" data-name="图层 1"><path class="cls-1" d="M22.64,38.92a2.7,2.7,0,0,1-1.55-.81L10.56,27.57l.13-.32h1.83l.13.06,10,10L39,21A8.69,8.69,0,0,0,39,8.69l-.27-.27a8.71,8.71,0,0,0-12.28,0l-2.35,2.35a2.06,2.06,0,0,1-1.45.7,2.4,2.4,0,0,1-1.44-.71L18.86,8.43a8.71,8.71,0,0,0-12.28,0l-.27.27A8.69,8.69,0,0,0,5,19.19l-.16.28H3.32l-.17-.11a10.36,10.36,0,0,1,2-11.85l.27-.27A10.39,10.39,0,0,1,20,7.24l2.61,2.61,2.61-2.61a10.39,10.39,0,0,1,14.64,0l.27.27a10.36,10.36,0,0,1,0,14.64l-16,16A2.17,2.17,0,0,1,22.64,38.92Z"/><path class="cls-1" d="M19.53,27.91a.88.88,0,0,1-.77-.47l-3.34-6.79-2,2.68a.87.87,0,0,1-.69.35H.86A.86.86,0,1,1,.86,22H12.31l2.56-3.47a.88.88,0,0,1,.7-.35.89.89,0,0,1,.76.48l3,6.11,3.18-10.35a.85.85,0,0,1,.8-.61.86.86,0,0,1,.83.57L26.92,22H31a.86.86,0,0,1,0,1.72H26.32a.86.86,0,0,1-.81-.57l-2.1-5.82-3.06,10a.86.86,0,0,1-.75.6Z"/><path class="cls-2" d="M33,.9A13.77,13.77,0,0,1,45.61,20.14"/><path class="cls-3" d="M32.31,9.28a5.6,5.6,0,0,1,5.14,7.84"/></g></g></svg>