<svg xmlns="http://www.w3.org/2000/svg" viewBox="0 0 53.62 39.94"><defs><style>.cls-1,.cls-2{fill:none;stroke-linecap:round;stroke-linejoin:round;stroke-width:1.8px;}.cls-1{stroke:#ff2600;}.cls-2{stroke:#001cb9;}</style></defs><title>report_congnition</title><g id="图层_2" data-name="图层 2"><g id="图层_1-2" data-name="图层 1"><path class="cls-1" d="M41.34.9A18,18,0,0,1,52.72,12.49"/><path class="cls-1" d="M37.33,9.85a9.15,9.15,0,0,1,6.21,6.37"/><path class="cls-1" d="M35.54,14.17A4.5,4.5,0,0,1,39.19,18"/><path class="cls-2" d="M26.64,23.63v3.18a4.2,4.2,0,1,1,0,4.55v6"/><path class="cls-2" d="M13.25,39V35.39H6.91a2.44,2.44,0,0,1-1.45-.67c-.78-.67-.67-1.22-.67-1.22l.11-6.23H.9L4.79,17A11.68,11.68,0,0,1,16.48,5.33h10"/><path class="cls-1" d="M39.9,39V35.39h6.34a2.44,2.44,0,0,0,1.45-.67c.78-.67.67-1.22.67-1.22l-.11-6.23h4L48.35,17A11.68,11.68,0,0,0,36.67,5.33H26.62v6.56a4.2,4.2,0,1,0,0,4.55V20"/></g></g></svg>